<svg xmlns="http://www.w3.org/2000/svg" width="323.898" height="76.712" viewBox="0 0 323.898 76.712">
  <g id="Group_145" data-name="Group 145" transform="translate(-328.693 -154.612)">
    <g id="Group_145-2" data-name="Group 145" transform="translate(418.256 211.841)">
      <path id="Path_377" data-name="Path 377" d="M382.063,189.791v-.839q2.636.078,4.17.079,1.022,0,2.177-.027l2.057-.065c.228-.008.438-.013.629-.013a9.377,9.377,0,0,1,3.279.46,3.8,3.8,0,0,1,1.861,1.462,4.024,4.024,0,0,1,.67,2.287,5.2,5.2,0,0,1-.557,2.3,5.3,5.3,0,0,1-1.619,1.933,7.042,7.042,0,0,1-2.217,1.134,6.185,6.185,0,0,1-1.782.237,9.775,9.775,0,0,1-1.811-.185l-.275-.983a8.854,8.854,0,0,0,1.836.263,3.879,3.879,0,0,0,1.869-.478,3.286,3.286,0,0,0,1.376-1.44,4.618,4.618,0,0,0,.492-2.128,4.306,4.306,0,0,0-.478-2.036,3.139,3.139,0,0,0-1.457-1.381,5.413,5.413,0,0,0-2.366-.472,9.018,9.018,0,0,0-2.675.446q-.118,1.389-.117,4.353V201.3q0,1.782.039,3.475a4.236,4.236,0,0,0,.19,1.48.887.887,0,0,0,.487.349,9.443,9.443,0,0,0,1.895.138v.839q-2.427-.106-3.568-.106-.446,0-4.1.106v-.839a9.481,9.481,0,0,0,1.888-.138.876.876,0,0,0,.472-.309,3.3,3.3,0,0,0,.2-1.272q.015-.274.054-3.724v-6.072q0-1.782-.04-3.487a4.1,4.1,0,0,0-.19-1.475.889.889,0,0,0-.485-.341A9.325,9.325,0,0,0,382.063,189.791Z" transform="translate(-382.063 -188.571)" fill="#fff"/>
      <path id="Path_378" data-name="Path 378" d="M391.658,189.791v-.839l1.561.039,2.517.065q.748,0,2.321-.052,2.044-.078,2.373-.079a10.887,10.887,0,0,1,3.652.446,3.558,3.558,0,0,1,1.777,1.448,4.032,4.032,0,0,1,.629,2.183,4.541,4.541,0,0,1-.591,2.19,4.932,4.932,0,0,1-1.71,1.809,8.9,8.9,0,0,1-2.918,1.114q.327.461,1.547,2.046l3.3,4.353q1.417,1.825,1.653,2.034a.762.762,0,0,0,.235.129,3.369,3.369,0,0,0,.866.067v.839c-.664-.054-1.245-.079-1.744-.079-.517,0-1.15.025-1.9.079q-.853-.984-2.86-3.843-1.113-1.586-1.967-2.648-1.377-1.757-2.621-3.187l.131-.393c.455.027.8.039,1.035.039a5.192,5.192,0,0,0,3.62-1.126,3.85,3.85,0,0,0,1.232-2.977,3.27,3.27,0,0,0-1.062-2.564,4.7,4.7,0,0,0-3.212-.95,8.826,8.826,0,0,0-2.648.406c-.035.473-.062.913-.079,1.324q-.015.184-.092,3.816V201.3q0,1.782.052,3.475a4.1,4.1,0,0,0,.178,1.48.876.876,0,0,0,.492.349,9.467,9.467,0,0,0,1.888.138v.839q-1.863-.106-3.422-.106-1.259,0-4.236.106v-.839a9.5,9.5,0,0,0,1.888-.138.876.876,0,0,0,.472-.309,3.3,3.3,0,0,0,.2-1.272q.015-.274.054-3.724v-6.072q0-1.782-.04-3.487a4.1,4.1,0,0,0-.19-1.475.889.889,0,0,0-.485-.341A9.326,9.326,0,0,0,391.658,189.791Z" transform="translate(-375.556 -188.571)" fill="#fff"/>
      <path id="Path_379" data-name="Path 379" d="M410.085,206.735v.839q-2.792-.106-3.67-.106l-4.053.106v-.839a9.468,9.468,0,0,0,1.888-.138.875.875,0,0,0,.473-.309,3.375,3.375,0,0,0,.2-1.272q.013-.274.052-3.724v-6.072q0-1.782-.039-3.487a4.185,4.185,0,0,0-.19-1.475.9.9,0,0,0-.487-.341,9.312,9.312,0,0,0-1.895-.138v-.839q2.5.091,3.868.091,1.311,0,3.855-.091v.839a9.326,9.326,0,0,0-1.895.138.857.857,0,0,0-.465.309,3.327,3.327,0,0,0-.2,1.27q-.013.264-.052,3.724v6.072q0,1.782.039,3.475a4.191,4.191,0,0,0,.19,1.48.889.889,0,0,0,.485.349A9.458,9.458,0,0,0,410.085,206.735Z" transform="translate(-368.297 -188.56)" fill="#fff"/>
      <path id="Path_380" data-name="Path 380" d="M416.3,207.7q-.393-1.14-1.64-4.405L410.2,192.272c-.473-1.173-.765-1.849-.879-2.034a.68.68,0,0,0-.327-.248,5.527,5.527,0,0,0-1.442-.21v-.839q2.371.106,3.5.1,1.062,0,3.6-.1v.931c-1.066.017-1.685.039-1.854.064a.577.577,0,0,0-.354.153.375.375,0,0,0-.1.255,3.042,3.042,0,0,0,.185.681q.564,1.744.983,2.806l4.1,10.359,3.423-8.589q.745-1.848,1.428-4.026a5.808,5.808,0,0,0,.289-1.153.418.418,0,0,0-.341-.42,14.108,14.108,0,0,0-2.019-.223v-.839q1.979.078,2.975.079,1.025,0,2.819-.079v.839a4.7,4.7,0,0,0-1.193.131.913.913,0,0,0-.368.368q-.116.2-.97,2.123l-4.091,10.071-1.009,2.584q-.315.773-.512,1.337t-.433,1.311Z" transform="translate(-364.778 -188.56)" fill="#fff"/>
      <path id="Path_381" data-name="Path 381" d="M417.442,207.648v-.893a6.737,6.737,0,0,0,1.292-.084,1.152,1.152,0,0,0,.472-.275,4.265,4.265,0,0,0,.624-1.056q.234-.486,1.7-3.685l3.279-7.4q.536-1.218,2.294-5.427h.853l5.6,13.15q1.364,3.2,1.809,4.013a1.356,1.356,0,0,0,.545.6,3.833,3.833,0,0,0,1.331.156v.893q-2.046-.131-2.86-.131l-4.221.131v-.893a14.458,14.458,0,0,0,1.782-.091.794.794,0,0,0,.426-.19.45.45,0,0,0,.111-.309,2.131,2.131,0,0,0-.183-.748l-1.613-4.011h-7.592l-1.428,3.37a3.912,3.912,0,0,0-.381,1.324.438.438,0,0,0,.1.3.785.785,0,0,0,.446.235,9.559,9.559,0,0,0,1.705.117v.893q-2.218-.118-3.318-.119Q418.952,207.528,417.442,207.648Zm6.1-7.357h6.622l-3.279-7.906Z" transform="translate(-358.07 -188.634)" fill="#fff"/>
      <path id="Path_382" data-name="Path 382" d="M429.715,193.281H428.9q-.013-3.134-.131-4.34,1.43.053,4.484.131,2.477.053,3.3.052.891,0,4.13-.079,2.349-.05,3.423-.1-.159,1.468-.21,4.34h-.839l-.106-1.259c-.07-.76-.117-1.193-.144-1.3a.441.441,0,0,0-.111-.222.543.543,0,0,0-.216-.106c-.122-.027-.559-.06-1.311-.1s-1.348-.065-1.784-.065h-1.6q-.128,1.259-.129,3.395v7.671q0,1.782.039,3.475a4.192,4.192,0,0,0,.19,1.48.889.889,0,0,0,.485.349,9.458,9.458,0,0,0,1.895.138v.839q-2.346-.106-3.528-.106-.508,0-4.091.106v-.839a9.6,9.6,0,0,0,1.9-.138.8.8,0,0,0,.458-.309,3.065,3.065,0,0,0,.21-1.272q0-.274.052-3.724v-7.644c0-.368-.008-.769-.025-1.207l-.079-2.215h-1.953a22.074,22.074,0,0,0-2.688.129.571.571,0,0,0-.406.171,4.623,4.623,0,0,0-.263,1.43Z" transform="translate(-350.387 -188.56)" fill="#fff"/>
      <path id="Path_383" data-name="Path 383" d="M438.908,207.584v-.826a5.466,5.466,0,0,0,1.809-.21.5.5,0,0,0,.263-.25,4.718,4.718,0,0,0,.183-1.376q.078-1.732.079-2.99v-6.7q0-1.782-.04-3.487a4.1,4.1,0,0,0-.19-1.475.889.889,0,0,0-.485-.341,9.34,9.34,0,0,0-1.895-.138v-.839l3.736.079,3.962-.065q2.844-.04,4.13-.04a19.858,19.858,0,0,1,2.45.144,10.357,10.357,0,0,0-.287,1.3c-.018.081-.1.988-.237,2.729h-.826a14.046,14.046,0,0,0-.171-2.438,5.942,5.942,0,0,0-1.586-.408,23.973,23.973,0,0,0-2.937-.183c-.21,0-.678.018-1.4.052s-1.245.065-1.559.092q-.053,1.455-.079,2.727l-.052,4.432q1.533.081,2.819.079a20.7,20.7,0,0,0,2.662-.144.8.8,0,0,0,.537-.21,3.109,3.109,0,0,0,.21-1.076l.079-.918h.787v.25l-.065,2.727.065,3.056h-.918l-.04-.893a2.989,2.989,0,0,0-.176-1.207.857.857,0,0,0-.571-.327,16.961,16.961,0,0,0-2.9-.158q-.879,0-2.49.065-.068,1.311-.065,3.9,0,2.427.065,3.685,1.888.143,4.236.144a18.308,18.308,0,0,0,2.373-.106,5.589,5.589,0,0,0,1.311-.354,8.121,8.121,0,0,0,.315-1.1q.287-1.168.379-1.757h.866a35.435,35.435,0,0,0-.342,4.392,18.6,18.6,0,0,1-2.739.171l-7.829-.106Q442.172,207.479,438.908,207.584Z" transform="translate(-343.699 -188.571)" fill="#fff"/>
      <path id="Path_384" data-name="Path 384" d="M469.933,205.407l-.512,1.218a13.617,13.617,0,0,1-3,1.121,13.886,13.886,0,0,1-3.2.349,13.38,13.38,0,0,1-3.776-.512,9.805,9.805,0,0,1-3.047-1.463,9.1,9.1,0,0,1-2.131-2.13A9.28,9.28,0,0,1,453,201.426a10.112,10.112,0,0,1-.433-3.034,9.115,9.115,0,0,1,2.917-6.931,11.157,11.157,0,0,1,7.966-2.747,16.389,16.389,0,0,1,2.208.138,20.95,20.95,0,0,1,2.479.525q1.462.385,1.791.451a8.349,8.349,0,0,0-.433,1.416,19.889,19.889,0,0,0-.289,2.583h-.826l-.013-1.547a2.313,2.313,0,0,0-1.423-1.913,8.918,8.918,0,0,0-3.783-.629,10.075,10.075,0,0,0-3.16.478,6.053,6.053,0,0,0-2.289,1.428,7.533,7.533,0,0,0-1.618,2.479,9.954,9.954,0,0,0-.643,3.771,8.323,8.323,0,0,0,8.837,8.81,10.66,10.66,0,0,0,3.329-.5,7.74,7.74,0,0,0,2.086-1.074Z" transform="translate(-334.246 -188.714)" fill="#fff"/>
      <path id="Path_385" data-name="Path 385" d="M463.635,207.648v-.893a6.737,6.737,0,0,0,1.292-.084,1.157,1.157,0,0,0,.473-.275,4.28,4.28,0,0,0,.623-1.056q.237-.486,1.7-3.685l3.279-7.4q.539-1.218,2.294-5.427h.853l5.6,13.15q1.364,3.2,1.811,4.013a1.345,1.345,0,0,0,.544.6,3.841,3.841,0,0,0,1.331.156v.893q-2.044-.131-2.858-.131l-4.222.131v-.893a14.5,14.5,0,0,0,1.784-.091.788.788,0,0,0,.425-.19.451.451,0,0,0,.112-.309,2.14,2.14,0,0,0-.185-.748l-1.611-4.011h-7.594l-1.428,3.37a3.955,3.955,0,0,0-.381,1.324.44.44,0,0,0,.106.3.78.78,0,0,0,.445.235,9.588,9.588,0,0,0,1.705.117v.893q-2.215-.118-3.318-.119Q465.144,207.528,463.635,207.648Zm6.1-7.357h6.622l-3.279-7.906Z" transform="translate(-326.744 -188.634)" fill="#fff"/>
      <path id="Path_386" data-name="Path 386" d="M476.231,189.791v-.839q2.636.078,4.17.079,1.022,0,2.177-.027l2.059-.065c.227-.008.436-.013.629-.013a9.373,9.373,0,0,1,3.277.46,3.8,3.8,0,0,1,1.861,1.462,4.011,4.011,0,0,1,.67,2.287,5.2,5.2,0,0,1-.557,2.3,5.281,5.281,0,0,1-1.619,1.933,7.041,7.041,0,0,1-2.217,1.134,6.176,6.176,0,0,1-1.782.237,9.757,9.757,0,0,1-1.809-.185l-.275-.983a8.839,8.839,0,0,0,1.836.263,3.877,3.877,0,0,0,1.868-.478,3.286,3.286,0,0,0,1.376-1.44,4.6,4.6,0,0,0,.493-2.128,4.307,4.307,0,0,0-.48-2.036,3.127,3.127,0,0,0-1.455-1.381,5.413,5.413,0,0,0-2.366-.472,9.009,9.009,0,0,0-2.675.446q-.118,1.389-.119,4.353V201.3q0,1.782.04,3.475a4.192,4.192,0,0,0,.19,1.48.883.883,0,0,0,.485.349,9.458,9.458,0,0,0,1.895.138v.839q-2.427-.106-3.566-.106-.446,0-4.1.106v-.839a9.467,9.467,0,0,0,1.888-.138.881.881,0,0,0,.473-.309,3.374,3.374,0,0,0,.2-1.272q.013-.274.052-3.724v-6.072q0-1.782-.039-3.487a4.121,4.121,0,0,0-.191-1.475.889.889,0,0,0-.485-.341A9.326,9.326,0,0,0,476.231,189.791Z" transform="translate(-318.202 -188.571)" fill="#fff"/>
      <path id="Path_387" data-name="Path 387" d="M493.566,206.735v.839q-2.794-.106-3.672-.106l-4.053.106v-.839a9.506,9.506,0,0,0,1.89-.138.876.876,0,0,0,.471-.309,3.338,3.338,0,0,0,.2-1.272q.013-.274.054-3.724v-6.072q0-1.782-.04-3.487a4.1,4.1,0,0,0-.19-1.475.889.889,0,0,0-.485-.341,9.335,9.335,0,0,0-1.9-.138v-.839q2.507.091,3.87.091,1.309,0,3.855-.091v.839a9.326,9.326,0,0,0-1.895.138.855.855,0,0,0-.467.309,3.363,3.363,0,0,0-.2,1.27q-.013.264-.052,3.724v6.072q0,1.782.039,3.475a4.135,4.135,0,0,0,.191,1.48.883.883,0,0,0,.485.349A9.458,9.458,0,0,0,493.566,206.735Z" transform="translate(-311.685 -188.56)" fill="#fff"/>
      <path id="Path_388" data-name="Path 388" d="M492.146,193.281h-.812q-.013-3.134-.133-4.34,1.43.053,4.486.131,2.477.053,3.3.052.891,0,4.13-.079,2.346-.05,3.423-.1-.159,1.468-.21,4.34H505.5l-.106-1.259c-.07-.76-.117-1.193-.144-1.3a.441.441,0,0,0-.112-.222.523.523,0,0,0-.215-.106c-.122-.027-.561-.06-1.311-.1s-1.348-.065-1.784-.065h-1.6q-.131,1.259-.131,3.395v7.671q0,1.782.04,3.475a4.151,4.151,0,0,0,.19,1.48.883.883,0,0,0,.485.349,9.458,9.458,0,0,0,1.895.138v.839q-2.349-.106-3.527-.106-.511,0-4.091.106v-.839a9.578,9.578,0,0,0,1.9-.138.8.8,0,0,0,.46-.309,3.064,3.064,0,0,0,.21-1.272q0-.274.052-3.724v-7.644c0-.368-.008-.769-.025-1.207l-.081-2.215h-1.953a22.063,22.063,0,0,0-2.687.129.571.571,0,0,0-.406.171,4.623,4.623,0,0,0-.263,1.43Z" transform="translate(-308.05 -188.56)" fill="#fff"/>
      <path id="Path_389" data-name="Path 389" d="M499.765,207.648v-.893a6.75,6.75,0,0,0,1.292-.084,1.152,1.152,0,0,0,.472-.275,4.265,4.265,0,0,0,.624-1.056q.234-.486,1.7-3.685l3.279-7.4q.536-1.218,2.294-5.427h.853l5.6,13.15q1.364,3.2,1.809,4.013a1.363,1.363,0,0,0,.544.6,3.852,3.852,0,0,0,1.332.156v.893q-2.046-.131-2.86-.131l-4.22.131v-.893a14.459,14.459,0,0,0,1.782-.091.794.794,0,0,0,.426-.19.45.45,0,0,0,.111-.309,2.13,2.13,0,0,0-.183-.748l-1.613-4.011h-7.592l-1.43,3.37a3.94,3.94,0,0,0-.379,1.324.438.438,0,0,0,.1.3.785.785,0,0,0,.446.235,9.559,9.559,0,0,0,1.705.117v.893q-2.218-.118-3.318-.119Q501.274,207.528,499.765,207.648Zm6.1-7.357h6.622l-3.279-7.906Z" transform="translate(-302.242 -188.634)" fill="#fff"/>
      <path id="Path_390" data-name="Path 390" d="M513.408,207.574v-.683a4.168,4.168,0,0,0,1.037-.6.645.645,0,0,0,.183-.3,7.227,7.227,0,0,0,.158-1.574c.033-1.2.052-1.908.052-2.136v-7.055q0-1.782-.039-3.487a4.121,4.121,0,0,0-.191-1.475.889.889,0,0,0-.485-.341,9.326,9.326,0,0,0-1.895-.138v-.839q3.2.106,3.959.1.841,0,3.764-.1v.839a9.326,9.326,0,0,0-1.895.138.85.85,0,0,0-.465.309,3.317,3.317,0,0,0-.2,1.27q-.013.264-.052,3.724v8.812q0,1.377.052,2.242,1.5.093,2.965.092a19.41,19.41,0,0,0,5.179-.472,6.234,6.234,0,0,0,.3-.906l.525-2.175h.878q-.287,1.953-.564,4.588a8.471,8.471,0,0,1-.851.133q-.682.038-2.1.039l-7.761-.106Q514.707,207.468,513.408,207.574Z" transform="translate(-293.79 -188.56)" fill="#fff"/>
    </g>
    <g id="Group_146" data-name="Group 146" transform="translate(417.273 179.788)">
      <path id="Path_391" data-name="Path 391" d="M405.522,192.221l-.837,1.839a18.37,18.37,0,0,1-4.085,1.646,19.336,19.336,0,0,1-4.524.446,17.847,17.847,0,0,1-6.825-1.22,12.258,12.258,0,0,1-6.444-6.115,14.539,14.539,0,0,1-1.329-6.208,12.184,12.184,0,0,1,3.922-9.364q3.924-3.632,11.078-3.632a24.2,24.2,0,0,1,4.414.364,29.775,29.775,0,0,1,4.541,1.292l.091.237a11.086,11.086,0,0,0-.455,2.146q-.272,2.059-.346,3.806H403.3q-.035-2-.181-3.2a8.034,8.034,0,0,0-2.74-1.9,10.286,10.286,0,0,0-3.885-.628,9,9,0,0,0-6.845,2.7q-2.565,2.706-2.566,7.545a13.874,13.874,0,0,0,.864,5.117,10.4,10.4,0,0,0,2.3,3.611,9.971,9.971,0,0,0,2.895,2.084,11.885,11.885,0,0,0,4.8.874,14.25,14.25,0,0,0,3.514-.42,16.679,16.679,0,0,0,3.6-1.437Z" transform="translate(-381.477 -169.614)" fill="#fff"/>
      <path id="Path_392" data-name="Path 392" d="M396.9,195.39v-1.51a13.6,13.6,0,0,0,1.755-.191,1.27,1.27,0,0,0,.483-.255,2.045,2.045,0,0,0,.409-.545q.209-.373,1.247-2.776.473-1.128,1.821-4.459l4.751-11.722,1.6-4.133h2.584l8.137,19,1.128,2.492.728,1.675a1.845,1.845,0,0,0,.346.475,1.088,1.088,0,0,0,.374.218,5.55,5.55,0,0,0,1.064.128c.181.025.448.054.8.091v1.51l-5.06-.109-6.389.109v-1.51a10.48,10.48,0,0,0,2.484-.247.542.542,0,0,0,.282-.519,4.7,4.7,0,0,0-.418-1.492l-1.566-4h-9.356l-.8,2.185a13.864,13.864,0,0,0-.911,3.13.666.666,0,0,0,.292.618,7.786,7.786,0,0,0,2.6.329v1.51l-4.2-.109Zm8.045-9.847q1.712.055,3.877.055,2.094,0,3.751-.055l-3.895-9.393Z" transform="translate(-371.017 -169.489)" fill="#fff"/>
      <path id="Path_393" data-name="Path 393" d="M415.612,195.338v-.928a11.927,11.927,0,0,0,1.329-.71,1.719,1.719,0,0,0,.492-.364.423.423,0,0,0,.091-.2q.091-.453.163-3.247t.074-6.708q0-5.752-.035-7.1a24.958,24.958,0,0,0-.238-3.915.563.563,0,0,0-.272-.326,8.108,8.108,0,0,0-2.786-.364v-1.6q2.311.111,5.28.109,3.31,0,6.278-.109v1.6a8.362,8.362,0,0,0-2.511.326.628.628,0,0,0-.29.356,14.843,14.843,0,0,0-.174,2.249q-.081,2-.082,5.06,0,.327.018,5.261.018,2.6.027,5.16t.027,3.1q2.512.108,3.423.109a31.085,31.085,0,0,0,4.823-.327,2.285,2.285,0,0,0,.893-.237,1.624,1.624,0,0,0,.309-.673q.363-1.384.71-3.168h1.51c-.035.341-.054.54-.054.6l-.455,3.677q-.149,1.732-.164,2.076a6.318,6.318,0,0,1-1.056.2q-1.11.091-3.44.091-.327,0-4.278-.091-3-.073-4.187-.074Q419.254,195.174,415.612,195.338Z" transform="translate(-359.13 -169.438)" fill="#fff"/>
      <path id="Path_394" data-name="Path 394" d="M428.992,195.353v-.982a9.2,9.2,0,0,0,1.784-1.057c.074-.508.133-1.334.181-2.475q.146-3.129.146-4.549V178.1q0-.473-.054-3.549a9.491,9.491,0,0,0-.255-2.512.616.616,0,0,0-.273-.274,10.161,10.161,0,0,0-2.621-.327v-1.547l4.222.091q1.259.02,2.4.018,2.495,0,5.551-.054l3.7-.092q.655,0,2.658.072a2.836,2.836,0,0,1,.6.111l.128.237-.346,2.621q-.02.272-.183,2.621h-1.42a16.666,16.666,0,0,0-.163-2.64.675.675,0,0,0-.218-.364,4.367,4.367,0,0,0-1.457-.29,31.835,31.835,0,0,0-3.532-.2c-1.079,0-2.185.042-3.311.128a43.555,43.555,0,0,0-.257,5.224V181.1q1.239.091,2.586.091.418,0,3.021-.074a3.375,3.375,0,0,0,1.156-.128.687.687,0,0,0,.263-.381,9.272,9.272,0,0,0,.255-2.312h1.475l-.074,4,.074,3.987h-1.566a6.608,6.608,0,0,0-.274-2.6,1.054,1.054,0,0,0-.782-.455,21.276,21.276,0,0,0-3.222-.2q-1.764,0-2.913.111v7.716q0,1.294.055,2.22,1.475.108,3.5.111,1.964,0,3.63-.128a6,6,0,0,0,2.049-.364.67.67,0,0,0,.235-.329,19.142,19.142,0,0,0,.693-3.313h1.492a55.753,55.753,0,0,0-.4,5.934l-.237.238a33.019,33.019,0,0,1-3.313.126l-2.93-.054q-4.335-.055-5.971-.055Q434.634,195.244,428.992,195.353Z" transform="translate(-349.995 -169.453)" fill="#fff"/>
      <path id="Path_395" data-name="Path 395" d="M442.706,195.353v-.873c.1-.06.267-.158.51-.292a12.661,12.661,0,0,0,1.275-.8q.2-2.439.2-7.918v-2.985q0-2.4-.092-7.045a19.033,19.033,0,0,0-.237-3.276.661.661,0,0,0-.144-.255.952.952,0,0,0-.455-.218c-.208-.049-.972-.158-2.3-.327v-1.475l6.609.109q1.163,0,4.387-.091c1.554-.037,2.8-.055,3.732-.055a27.03,27.03,0,0,1,5.159.393,10.525,10.525,0,0,1,3.378,1.255,9.622,9.622,0,0,1,2.43,2.047,8.744,8.744,0,0,1,1.5,2.549,14.3,14.3,0,0,1,.854,5.023,14.517,14.517,0,0,1-1.274,6.208,12.934,12.934,0,0,1-3.5,4.568,14.139,14.139,0,0,1-4.833,2.648,21.232,21.232,0,0,1-6.28.811l-5.405-.109Zm7.282-2.22a21.626,21.626,0,0,0,3.241.255,16.4,16.4,0,0,0,4.3-.51,7.762,7.762,0,0,0,2.42-1.111,8.08,8.08,0,0,0,1.992-2.146,11.238,11.238,0,0,0,1.485-3.387,16.352,16.352,0,0,0,.527-4.241,15.27,15.27,0,0,0-.527-4.014,8.984,8.984,0,0,0-1.73-3.395,6.831,6.831,0,0,0-3.041-2.111,17.683,17.683,0,0,0-5.568-.656,22.53,22.53,0,0,0-3.095.238q-.181,2.585-.181,9.737v4.189Q449.807,191.4,449.988,193.133Z" transform="translate(-340.793 -169.453)" fill="#fff"/>
      <path id="Path_396" data-name="Path 396" d="M460.462,183.083a15.32,15.32,0,0,1,1.009-5.806,11.832,11.832,0,0,1,6.963-6.7,18.916,18.916,0,0,1,6.152-.965,18.357,18.357,0,0,1,6.008.928,11.384,11.384,0,0,1,5.879,4.786,11.82,11.82,0,0,1,1.21,3.078,15.523,15.523,0,0,1,.409,3.694,16.809,16.809,0,0,1-1.181,6.354,11.531,11.531,0,0,1-2.557,3.877,11.953,11.953,0,0,1-3.833,2.6,17.506,17.506,0,0,1-6.734,1.22,15.463,15.463,0,0,1-7.035-1.483,10.915,10.915,0,0,1-4.615-4.377A14.219,14.219,0,0,1,460.462,183.083Zm5.605-1.074a18.23,18.23,0,0,0,1.165,7.016,8.173,8.173,0,0,0,2.985,3.924,7.881,7.881,0,0,0,4.3,1.146,7.793,7.793,0,0,0,4.1-1.092,7.194,7.194,0,0,0,2.839-3.7,17.227,17.227,0,0,0,1.029-6.315,18.358,18.358,0,0,0-.555-4.66,11.222,11.222,0,0,0-1.593-3.595,7.345,7.345,0,0,0-2.448-2.266,7.7,7.7,0,0,0-3.741-.784,7.954,7.954,0,0,0-4.523,1.247,7.032,7.032,0,0,0-2.712,3.687A16.31,16.31,0,0,0,466.067,182.009Z" transform="translate(-327.912 -169.614)" fill="#fff"/>
      <path id="Path_397" data-name="Path 397" d="M478.65,193.791a19.64,19.64,0,0,0,2.458-.2.794.794,0,0,0,.337-.237,1.614,1.614,0,0,0,.227-.673q.111-.692.253-3.35.075-1.51.074-3.932v-5.842l-.074-5.3a10.555,10.555,0,0,0-.107-1.73,1.347,1.347,0,0,0-.263-.591,1.192,1.192,0,0,0-.576-.3,18.18,18.18,0,0,0-2.329-.237v-1.529q2.313.111,3.4.109l2.638-.054,1.675-.055q3.751,4.9,9.084,11.286,3.839,4.6,6.37,7.208v-4.205q0-9.79-.218-11.521a1.29,1.29,0,0,0-.327-.874,6.78,6.78,0,0,0-2.839-.364v-1.529q2.22.111,4.076.109,1.8,0,4.642-.109V171.4a7.282,7.282,0,0,0-2.64.327.467.467,0,0,0-.2.274,20.7,20.7,0,0,0-.356,4.16q-.08,3.247-.081,4.8,0,12.105.237,14.689l-.237.163q-1.528-.254-3.113-.473-5.88-6.57-16.673-19.73v9.064q0,2.822.109,5.88a13.669,13.669,0,0,0,.218,2.566.718.718,0,0,0,.245.354,1.255,1.255,0,0,0,.609.191,15.453,15.453,0,0,0,1.73.146c.072,0,.193-.007.364-.018v1.475q-3.459-.035-3.932-.037-1.767,0-4.788.109Z" transform="translate(-315.578 -169.438)" fill="#fff"/>
      <path id="Path_398" data-name="Path 398" d="M508.908,169.874v1.6a17.249,17.249,0,0,0-2.185.136,1.268,1.268,0,0,0-.49.2.6.6,0,0,0-.2.3,4.27,4.27,0,0,0-.181,1.183q-.038.473-.055,1.784-.073,4.478-.072,4.823v7.335l.054,3.331a9.939,9.939,0,0,0,.183,2.44.72.72,0,0,0,.245.391,1.366,1.366,0,0,0,.545.218,17,17,0,0,0,2.158.119v1.6q-2.968-.108-6.335-.109-2.93,0-5.222.109v-1.6q1.89-.073,2.183-.128a1.1,1.1,0,0,0,.519-.2.563.563,0,0,0,.173-.292c.037-.146.086-.715.146-1.712q.146-2.182.144-4.041v-7.607q0-3.622-.035-4.66a23.277,23.277,0,0,0-.218-2.893.777.777,0,0,0-.173-.364.906.906,0,0,0-.438-.21,18.687,18.687,0,0,0-2.3-.154v-1.6q2.293.111,5.259.109Q505.941,169.983,508.908,169.874Z" transform="translate(-302.896 -169.438)" fill="#fff"/>
      <path id="Path_399" data-name="Path 399" d="M505.474,195.39v-1.51a13.735,13.735,0,0,0,1.757-.191,1.275,1.275,0,0,0,.482-.255,2.011,2.011,0,0,0,.409-.545q.209-.373,1.247-2.776.473-1.128,1.821-4.459l4.751-11.722,1.6-4.133h2.584l8.137,19,1.128,2.492.728,1.675a1.847,1.847,0,0,0,.346.475,1.088,1.088,0,0,0,.374.218,5.55,5.55,0,0,0,1.064.128c.181.025.45.054.8.091v1.51l-5.061-.109-6.389.109v-1.51a10.532,10.532,0,0,0,2.485-.247.545.545,0,0,0,.282-.519,4.673,4.673,0,0,0-.419-1.492l-1.566-4h-9.354l-.8,2.185a13.866,13.866,0,0,0-.911,3.13.669.669,0,0,0,.292.618,7.778,7.778,0,0,0,2.6.329v1.51l-4.206-.109Zm8.045-9.847q1.712.055,3.878.055,2.092,0,3.749-.055l-3.895-9.393Z" transform="translate(-297.387 -169.489)" fill="#fff"/>
    </g>
    <g id="Group_148" data-name="Group 148" transform="translate(328.693 154.612)">
      <g id="Group_147" data-name="Group 147">
        <path id="Path_400" data-name="Path 400" d="M348.184,175.019c.134.089.2,0,.47-.243a33.383,33.383,0,0,0,4.286-4.885c.164-.237.232-.53.082-.639-.26-.19-.446.164-.463.176a60.083,60.083,0,0,1-4.2,5.152C348.3,174.65,348.083,174.951,348.184,175.019Z" transform="translate(-315.494 -144.722)" fill="#fff"/>
        <path id="Path_401" data-name="Path 401" d="M346.577,173.276s-.468.233-.408.339c.094.168.453.1.53.069a16.824,16.824,0,0,0,5.743-4.531c.111-.131.158-.285-.005-.408s-.445.013-.554.191A15.038,15.038,0,0,1,346.577,173.276Z" transform="translate(-316.845 -145.06)" fill="#fff"/>
        <path id="Path_402" data-name="Path 402" d="M350.68,175.928c.151.106.3-.178.3-.178a43.4,43.4,0,0,1,2.734-5.224.365.365,0,0,0-.067-.435.345.345,0,0,0-.53.109,31.046,31.046,0,0,0-2.448,5.32C350.636,175.6,350.5,175.8,350.68,175.928Z" transform="translate(-313.845 -144.174)" fill="#fff"/>
        <path id="Path_403" data-name="Path 403" d="M354.289,176.217c.079-.035.049-.272.049-.272a7.368,7.368,0,0,1,.069-4.476c.008-.025-.01-.3-.124-.366-.144-.081-.378-.044-.421.067a6.94,6.94,0,0,0,.122,4.83C354.022,176.088,354.21,176.252,354.289,176.217Z" transform="translate(-311.884 -143.458)" fill="#fff"/>
        <path id="Path_404" data-name="Path 404" d="M350.88,168.753c.445-.461-.039-.66-.49-.263a7.849,7.849,0,0,1-4.068,1.826c-.557.1-.357.339-.018.3A7.863,7.863,0,0,0,350.88,168.753Z" transform="translate(-316.975 -145.345)" fill="#fff"/>
        <path id="Path_405" data-name="Path 405" d="M338.756,180.744c0,.039-4.6,2.549-5.984,3.908-.129.126-.247.253-.18.319.086.086.243.05.411-.076s3.818-2.474,6.021-3.563c0,0,.475-.327.357-.55C339.237,180.5,338.756,180.744,338.756,180.744Z" transform="translate(-326.063 -136.956)" fill="#fff"/>
        <path id="Path_406" data-name="Path 406" d="M338.925,180.647a23.128,23.128,0,0,0-2.292,3.6c-.035.074-.117.3,0,.359.154.084.282-.128.282-.128a17.011,17.011,0,0,1,2.358-3.358.452.452,0,0,0,.114-.524C339.3,180.48,339.061,180.513,338.925,180.647Z" transform="translate(-323.35 -137.039)" fill="#fff"/>
        <path id="Path_407" data-name="Path 407" d="M354.79,159.381c.277.2,1.227,1.594,1.9,1.519a5.457,5.457,0,0,0,1.671-.643,5.827,5.827,0,0,0,.952-.584c.274-.221.344-.5.062-.549a9.281,9.281,0,0,1-1.448-.874c-.5-.352-.742-.673-1-.671s-1.032.893-1.809,1.195l-.037.01s-.619.146-.638.3C354.425,159.257,354.639,159.267,354.79,159.381Zm1.782-.482c.269.326-.114.383,0,.594s.446.284.772-.042-.109-.557-.235-.681c-.208-.2-.267-.287-.146-.414s.294.119.587.314c.26.173.584.359.819.53.094.07.067.284-.136.438a4.63,4.63,0,0,1-1.624.748c-.289-.018-1.1-.923-1.005-1.064C355.681,159.214,356.391,158.68,356.572,158.9Z" transform="translate(-311.23 -152.6)" fill="#fff"/>
        <path id="Path_408" data-name="Path 408" d="M360.981,163.487s.287-.159.111-.3-1.238-1.732.906-2.081c0,0,.621-.081.208-.319a2.282,2.282,0,0,0-2.512.874A1.587,1.587,0,0,0,360.981,163.487Z" transform="translate(-307.696 -150.52)" fill="#fff"/>
        <path id="Path_409" data-name="Path 409" d="M352.419,159.459c.23-.025.91-.371.945-.732s-.185-.369-.317-.317c-.211.081-.591,0-.7.131C352.2,158.733,352.191,159.486,352.419,159.459Z" transform="translate(-312.724 -152.052)" fill="#fff"/>
        <path id="Path_410" data-name="Path 410" d="M336.874,161.055a10.394,10.394,0,0,0-1.114-.928c-.139-.109-.275-.168-.326-.1-.114.151.186.357.287.441a7.948,7.948,0,0,1,.96.967c.564.685.874,1.1.906,1.146.067.084.262.2.378.047s.039-.319-.054-.473A13.531,13.531,0,0,0,336.874,161.055Z" transform="translate(-324.139 -150.96)" fill="#fff"/>
        <path id="Path_411" data-name="Path 411" d="M355.477,174.945a8.207,8.207,0,0,1,.082-2.161l.013-.055c-.029.082.081-.272-.109-.463s-.342-.215-.354,0a1.572,1.572,0,0,1-.04.341,6.727,6.727,0,0,0,.04,2.272C355.19,175.122,355.437,175.4,355.477,174.945Z" transform="translate(-310.86 -142.743)" fill="#fff"/>
        <path id="Path_412" data-name="Path 412" d="M337.893,163.6a8.733,8.733,0,0,1-2.648.806c-.317.027-.332.1-.317.169s.023.154.287.178a17,17,0,0,0,2.871-.727c.169-.133.24-.294.163-.411S338,163.537,337.893,163.6Z" transform="translate(-324.468 -148.558)" fill="#fff"/>
        <path id="Path_413" data-name="Path 413" d="M340.4,162.885a10.745,10.745,0,0,0,2-1.579c.133-.185.1-.274.077-.324s-.163-.047-.317.116a9.779,9.779,0,0,1-1.8,1.344c-.191.126-.341.317-.3.416C340.094,162.923,340.183,163,340.4,162.885Z" transform="translate(-320.985 -150.312)" fill="#fff"/>
        <path id="Path_414" data-name="Path 414" d="M338.778,162.77c.122.146.309.05.4-.48a10.547,10.547,0,0,0-.441-4s-.045-.263-.193-.248-.163.109-.109.31a11.506,11.506,0,0,1,.21,3.707A1.231,1.231,0,0,0,338.778,162.77Z" transform="translate(-322.104 -152.287)" fill="#fff"/>
        <path id="Path_415" data-name="Path 415" d="M367.677,172.379s-.074-.356-.193-.327a.281.281,0,0,0-.134.371c.06.164.3,3.078-.253,4.205-.072.151-.163.238-.089.327s.089.03.238-.074a3.5,3.5,0,0,0,.728-1.47,15.015,15.015,0,0,0-.267-2.972Z" transform="translate(-302.729 -142.787)" fill="#fff"/>
        <path id="Path_416" data-name="Path 416" d="M368.96,177.877a1.167,1.167,0,0,0,.646.522c.3.1.858.149,1.032.211s.6.087.347-.136c0,0-1.416-.448-1.579-.522S368.873,177.691,368.96,177.877Z" transform="translate(-301.395 -138.889)" fill="#fff"/>
        <path id="Path_417" data-name="Path 417" d="M403.895,186s-.946-1.329-3.526-1.067c-.263.02-.235-.181-.342-.5a10.578,10.578,0,0,1-.223-2.237c-.059-1.171,1.25-2.217,1.192-3.574-.077-1.755-.616-2.46-.948-2.37s.081,1.027-1.22,1.979a24.192,24.192,0,0,1-2.245,1.153,2.564,2.564,0,0,0-.945.8c-.421.21-.467-.258-.374-.562.112-.367.117-.56-.28-.421A9.147,9.147,0,0,0,392.221,182c-.493.827-.73,1.687-1.007,2.13-.151.242-.344.416-.42.374-2.809-1.569-1.9-2.5-2.318-2.621-.584-.163-.678,1.5-1.332,1.148s.351-1.732-.164-2.106a3.5,3.5,0,0,0-2.551,3.579c.092,2.029,1.9,3.024,2.668,4.445.6,1.106.6,1.715.351,2.1s-6.592,2.826-6.808,2.9a.517.517,0,0,1-.7-.3,59.656,59.656,0,0,1-2.789-5.951c-.2-.576-.059-.824.017-.926a1.829,1.829,0,0,0,.289-.485,5.73,5.73,0,0,1,.19-.7,3.719,3.719,0,0,1,1.195-1.129c.762-.5,1.717-.832,2.479-1.287.245-.146.247-.309.445-.468.257-.206.686-.406.784-.522a4.716,4.716,0,0,0,.993-2.356c-.069-.163-.589.123-.654-.045s.28-.842.07-1.03-.866.282-1.076-.07a1.017,1.017,0,0,1,.294-.9c.455-.2,1.507.691,1.947.245.183-.185-.859-1.4-.44-2.549a5.7,5.7,0,0,0,.508-2.631,4.763,4.763,0,0,1,.849-.933c.138-.122.111-.342.055-.592s-.727-2.026-.727-2.026a.443.443,0,0,1,.109-.48,3.07,3.07,0,0,0,1.48-2.056,5.7,5.7,0,0,0,.124-1.658c-.149-.651-.448-.913-.411-1.1.109-.539.767-.535.809-.931.01-.1-.268-.252-.374-.451s-.037-.443.134-.752c.252-.451,1.05-.972,1.037-1.071-.05-.384-.569-.218-.962-.373a.382.382,0,0,1-.233-.274,2.87,2.87,0,0,1,1.3-2.22c.314-.181.282-.421.04-.493a3.507,3.507,0,0,0-2.462.04c-.594.384-.777.1-.732-.411a1.614,1.614,0,0,1,.755-1.22c.438-.26.242-.508.136-.534-2.458-.613-3.128.389-3.7.863-.2.166-.386-.018-.453-.069s-.6-1.116-.834-1.128c-.169-.01-.376.44-.537.117-.087-.178-.274-.507-.4-.482-.171.034-.559.874-.832,1.163a7.722,7.722,0,0,1-2.153,1.631c-.161.018-1.67-.2-2.111-.274a22.1,22.1,0,0,0-2.536.342,10.071,10.071,0,0,0-1.819-.081c-.227.109-.7,1.037-.9,1.17s-2.406.963-2.584,1.53c-.341,1.087.386,2.262.25,2.9-.473,2.2.752,2.235.78,2.485.018.154-.792.29-1.265.025-.685-.381-.71-.948-.987-1.566-.19-.425-.435-.769-.732-.752-.175.01-.6.237-.73,1.186a4.118,4.118,0,0,0,.081,1.346c.314,1.782,2.4,2.727,2.4,2.727a.89.89,0,0,1,.418.609,1.221,1.221,0,0,1-.337,1.042c-.289.322-.821.812-.334,1.01.262.107.614.084.814.255a.189.189,0,0,1,.067.25,3.073,3.073,0,0,1-.841.675.913.913,0,0,1-.6.084c-.361-.111-.322-.707-.315-.8.013-.193.138-.727.138-.727a8.716,8.716,0,0,0,.232-1.252,2.714,2.714,0,0,0-.559-1.223c-.126-.072-.334-.023-.45-.072-.216-.091-.2-.386-.394-.468s-.337.087-.619.018-.233-.755-.508-.757a3.221,3.221,0,0,0-1.314,1.593c-.042.426-.22,2.784-.2,3.017a25.649,25.649,0,0,1-.653,2.573c-.045.119-.873.6-.96,1.067a1.95,1.95,0,0,0,.164,1.019.538.538,0,0,1-.074.453,2.99,2.99,0,0,1-4.006.394,1.522,1.522,0,0,1,.628-2.376c.695-.134.853-.29.651-.582-2.8-2.061-5.164,1.438-5.164,1.438-.215.025-3.563-2.373-3.435-5.165.084-1.829,2.658-1.848,3.595-4.685.8-2.413-.124-4.565-.715-4.571-.772-.01-.7.607-1.492,1.584-.54.665-1.544,1.215-1.769,1.113-.4-.185-.47-1.359-.737-2.6-.522-2.428-3.487-4.417-5-4.595a.618.618,0,0,0-.624.9c.649,1.4,1.917,4.338,1.086,5.4-.334.426-1.942-1.431-4.417-1.764-2.059-.277-3.259.28-3.355.836-.067.393.6.8,1.457,1.374,1.416.948,3.227,2.274,3.284,4.15.029.97-1.559,1.379-2.948,1.467-1.331.082-2.542-.154-2.5.587.044.851,1.314,2.168,2.472,2.7,2.641,1.22,5.239-.48,5.647.413.592,1.3,1.3,10.393,4.1,11.98.7.4,1.814.517,3.971.2a.379.379,0,0,1,.327.248,5.084,5.084,0,0,0,2.984,2.417c.047.015.23.2.062.362a35.115,35.115,0,0,1-7.04,4.716c-1.176.562-2.521,1.215-3.707,1.747-7.812,3.5-14.785,3.506-14.385,5.347.28,1.3,4.222.141,4.647,1.6.223.765-1.821,3.331-1.156,4.13.893,1.071,3.835-2.37,6.1-2.21,1.744.124,2.079,3.593,2.984,3.719.958.133,1.1-3.739,3.049-4.388,2.636-.879,3.366,1.416,4.217.829,1.383-.95-1.343-3.016-.18-4.586.723-.978,6.229-.332,10.072-1.546a.38.38,0,0,1,.43.143c1.656,3.673,5.642,6.547,6.931,7.428.505.346.3.628.257.7-5.06,8.668-1.443,15.083,3.158,17.653,0,0,.064.279-.059.29a21.286,21.286,0,0,0-3.913,1.051,13.227,13.227,0,0,0-4.4-1.116,17.376,17.376,0,0,0-4.412.9,16.279,16.279,0,0,0-4.486-.9,13.557,13.557,0,0,0-4.461.977,14.6,14.6,0,0,0-4.714-1c-3.074,0-6.328,2.239-6.328,3.861,0,1.782,3.608,3.724,6.4,3.724,3.33,0,4.266-1,4.783-1a10.517,10.517,0,0,0,4.665,1.057,16.367,16.367,0,0,0,4.424-.973,12.268,12.268,0,0,0,4.256.952,11.709,11.709,0,0,0,4.429-.975c.448,0,2.257,1.069,4.414,1.069,3.163,0,4.029-1.007,4.533-1.007s1.774,1.047,4.393,1.047a12.409,12.409,0,0,0,4.373-1.009,15.1,15.1,0,0,0,4.494,1.049c2.338,0,3.727-1.087,4.253-1.087s2.316,1.208,5.561,1.007,5.662-2.2,5.662-3.888c0-1.43-2.781-3.549-6.731-3.67a14.746,14.746,0,0,0-4.514.928c-1.087.1-2.462-.9-4.774-.906a12.306,12.306,0,0,0-3.971.906,14.684,14.684,0,0,1-2.62-.806c-.648-.238-.065-.483-.065-.483.114-.052.227-.106.339-.159,4.84-2.383,7.228-7.678,7.2-13.024-.027-4.048-1.44-7.347-4.231-10.893-.124-.158-.069-.624.082-.7a39.23,39.23,0,0,0,4.949-2.809s.461-.433.569.384a4.7,4.7,0,0,0,.816,2.185c2.108,2.771,4.185,1.646,6.263,3.8a2.262,2.262,0,0,1,.023,2.635c-.356.482-.344.623.119.584,2.257-.946,2.126-1.831,2.559-1.975.243-.081.2.542.282.886.06.242.357.077.4.018,3.165-3.907,1.089-6.869,1.089-6.869s-.282-.685.222-.423a3.214,3.214,0,0,1,.906.764c.3.163.3-.337.282-.482-.2-1.168-.866-2.539-2.982-4.232-.443-.242-.483-.483-.141-.725a10.327,10.327,0,0,0,1.64-1.7c.918-1.171.8-2.537,1.562-3.516a1.9,1.9,0,0,1,1.453-.73C404.005,186.317,403.895,186,403.895,186Zm-19.875,7.6a2.207,2.207,0,0,1,.656-.364c.139-.022.176-.065.263.007.136.114.044.336-.174.482s-.423.342-.547.263S383.874,193.723,384.02,193.6Zm-1.26.5c.759-.087.9.351.874.589-.044.525-.735.8-1.034.853a.343.343,0,0,1-.342-.1c-.232-.258-.581-.121-.6-.406C381.615,194.525,382.4,194.144,382.76,194.1Zm-2.208,2.581c.554-.287,1.413,1.259,2.368,2.557a.579.579,0,0,1,.057.688c-.973.611-2.851-1.1-2.71-1.431C380.647,197.58,380.286,196.819,380.551,196.683Zm-14.033,2.272c-.072-.51-.361-.91-.146-1.114.163-.153.609-.005,1.04-.144.456-.149.758-.532.926-.532.572,0,2.38,1.789,1.431,2.88-1.156,1.329-3.095-.017-3.095-.017-.233-.126-.216-.287-.216-.287A5.074,5.074,0,0,0,366.519,198.956Zm-10.326-6.939c.1.262-.05.394-.164.836s-.049.639-.492.854a1.87,1.87,0,0,1-.869.131c-.4-.02-.814-.169-.787-.755a1.629,1.629,0,0,1,1.131-1.41C355.324,191.557,356.094,191.755,356.193,192.016Zm-1.116-3.722a2.474,2.474,0,0,1,.525-.443,1.559,1.559,0,0,1,.69-.213c.245-.034.262.327.279.54a.388.388,0,0,1-.378.409,9.793,9.793,0,0,1-1.017.116C354.986,188.7,355.011,188.408,355.077,188.294Zm.591,2.836a.854.854,0,0,1-.279-.574,1.508,1.508,0,0,1,.918-1.393c.361-.116.332.7.411.978.1.329.509.889.065,1.186A1.194,1.194,0,0,1,355.668,191.13Zm1.673.854c.262-.017.616.74.9.737.186,0,.477-.71.754-.557.329.18.075.413-.017.787a2.413,2.413,0,0,1-.2.722c-.279.393-1.93.267-2.1-.181A1.4,1.4,0,0,1,357.341,191.985Zm1.653-.567c-.185-.341.557-1.611.822-1.895.215-.225.307.057.565.112.18.039.5-.039.552.035.074.1.044.379-.111.832a2.033,2.033,0,0,1-.433.722C360.1,191.489,359.106,191.624,358.994,191.417Zm3.152-2.6c-.213.23-1.371.549-1.569-.042-.091-.275,1.161-1.252,1.621-1.252C362.493,187.524,362.36,188.59,362.145,188.818Zm.493,1.494c.252.557.656,1.18.344,1.327-1.19.564-1.584-.248-1.688-.555a1.448,1.448,0,0,1,.868-1.527C362.513,189.469,362.437,189.867,362.639,190.311Zm-1.952,1.574c.237-.064.753.361,1.344.475s.071.478-.029,1.134-.461.611-.611.638a2.932,2.932,0,0,1-1.411-.05.619.619,0,0,1-.441-.574A1.75,1.75,0,0,1,360.687,191.885Zm.849,3.212c-.18-.279.579-.732.656-.624C362.405,194.769,361.608,195.207,361.536,195.1Zm.143.777c1.465-.542,1.8-1.22,2.378-1.165.367.035.46,1.218-.394,1.841a1.578,1.578,0,0,1-1.41.258,2.139,2.139,0,0,1-.71-.371C361.274,196.3,361.405,195.975,361.679,195.875Zm2.5-2.349c-.3.148-1.034.968-1.23.772a1.184,1.184,0,0,1-.163-.916,1.75,1.75,0,0,1,.787-1.118c.2-.159.472.262.754.492.477.386,1.034.606.951.8C365.215,193.713,364.475,193.377,364.179,193.525Zm.656.755c.173-.134.567-.077.968-.1.384-.02.468-.191.787-.218.772-.065,2.007,1.351,1.557,2.26-1.014,2.051-3.408.421-3.427-.04-.008-.2.164-.378.164-.7C364.884,194.943,364.72,194.371,364.835,194.28Zm13.179,5.036c.091-.123.663-.07,1.628-.159.508-.047,2.007,1.942,1.062,2.866-1.034,1.012-2.895-.467-2.816-.8C378.246,199.744,377.818,199.585,378.014,199.316Zm.253,5.189c-.678,1.1-3.027-.193-2.86-.529a3.99,3.99,0,0,0,.232-1.947c.2-.232.571.161,1.463-.321C377.343,201.579,379.044,203.243,378.267,204.505Zm-3.081,14.775a.6.6,0,0,1-.477.51c-.287.079-1.082-.43-1.433-.844a1.193,1.193,0,0,1,.174-1.448,1.991,1.991,0,0,1,1.816-.1c.3.129.029.79-.067,1.046A2.968,2.968,0,0,0,375.186,219.28Zm-4.759-8.708c-.5-.67-.653-.557-.621-.925.062-.717.982-1.319,1.225-1.113C371.827,209.2,370.647,210.871,370.427,210.572Zm.461,3.459a1.232,1.232,0,0,1-1.082-.275,1.173,1.173,0,0,1,.43-1.225.868.868,0,0,1,.811.381C371.112,213.134,371.139,213.888,370.889,214.031Zm-2.568-12.642c.156-.185.527-.116.943-.223s.764-.4.972-.3c.416.193,1.583,1.636.806,2.581a1.835,1.835,0,0,1-2.6-.034c-.128-.2.035-.493.01-.827C368.415,202.122,368.173,201.563,368.321,201.389Zm2.284-3.214a8.465,8.465,0,0,0,1.786-.517c.237-.117,1.552,1.6,1.035,2.408a1.667,1.667,0,0,1-2.873-.037,7.073,7.073,0,0,0,.07-.767C370.617,198.788,370.511,198.273,370.6,198.175Zm2.589,8.745c.443-1.069.013-1.762.121-1.977s.539.013,1.4-.378c.379-.175,1.744,1.426,1.21,2.462C375.3,208.243,372.98,207.439,373.194,206.92Zm1.823,5.326c.257.948-.195,2.453-1.168,2.433-2.732-.06-2.151-4.8-1.514-5.759C373.555,209.318,374.775,211.35,375.017,212.247Zm-.2-8.735c-.928,1.3-2.7.035-2.7.035-.232-.285-.094-.586-.143-.945s-.263-.774-.067-.928c.25-.2.708.1,1.624-.555C374.087,200.726,375.44,202.643,374.82,203.512Zm-5.254,3.556c.159-.128,1.306.54,1.259.717s-.621.351-.861.3S369.407,207.2,369.566,207.068Zm.644-1.158c-.158-.195-.5-.881-.373-1.113.133-.247.5-.154.847-.292.428-.169.792-.477.92-.44a2.112,2.112,0,0,1,1.156,1.624c.037.733-.045.941-.591,1.191C371.743,207.078,370.37,206.1,370.211,205.91Zm1.729,9.107c.253-.176,1.136.3,1.311.636a2.454,2.454,0,0,1,.253,1.084c-.032.19-.418.334-.72.334s-.367-.154-.8-.728A1.37,1.37,0,0,1,371.939,215.017Zm3.029,1.747c-.428.163-1.176-.743-.943-1.054.111-.149.279-.265.812-.222a.614.614,0,0,1,.574.6A.91.91,0,0,1,374.968,216.764Zm.082-7.211c-.468-.453-1.037-.822-.938-1.22.045-.18.45.146,1.522-.081.435-.092.933,1.9.05,2.081C375.44,210.382,375.347,209.84,375.05,209.553Zm.794,4.828c.153-.26.334-.529.441-.505s.1.342.406.735c.131.169.48.25.641.488.1.153-.477.624-.985.5a.914.914,0,0,1-.755-.678A2.066,2.066,0,0,1,375.844,214.381Zm1.269-.73c.07-.2.294-.329.467-.5.232-.232.425-.482.542-.475.2.013.326.472.977.472.305,0,.112,1.131-.79,1.316C377.432,214.638,376.97,214.054,377.113,213.651Zm.8,3.511c.037.221-.2.665-1.349.629-.832-.029-.74-1.277-.592-1.406a4.143,4.143,0,0,1,.666-.185,4.58,4.58,0,0,1,.7-.24c.134-.023.117.361.235.649C377.7,216.914,377.9,217.048,377.917,217.162Zm-1.436-6.439c.007-.122.216-.557.277-.878.084-.441.032-.789.114-.878s.428.005.8.032c.277.022.44-.1.7-.015.23.072.475.952.227,1.5A1.246,1.246,0,0,1,376.48,210.723Zm.894,1.48c0,.586-.666.844-.926.844-.131,0-.154-.4-.195-.764s-.1-.695,0-.733C376.383,211.5,377.375,211.747,377.375,212.2ZM376,218.332c.07-.035.743.128,1.217.1a2.755,2.755,0,0,0,.915-.322c.332.017.554,1.2.3,1.344a2.036,2.036,0,0,1-2.312,0A.736.736,0,0,1,376,218.332Zm2.323-3.163c.844-.235,1-.69,1.287-.7.208-.01.312.493.91.767.938.428-.688,1.817-1.312,1.833C378.126,217.088,377.883,215.291,378.326,215.168Zm1.863-1.94c1.312-.826.925-1.222,1.282-1.3.258-.06.4.391,1.269.586.438.1.1,1.885-1.089,2.307C380.58,215.2,379.776,213.488,380.189,213.228Zm1.017-3.766c-1.106.44-2.205-.606-2.024-.967.547-1.094.228-1.593.5-1.786.31-.218.134.379,1.759.143C381.867,206.793,382.265,209.041,381.206,209.463Zm-1.913.545c.191-.18.44.146,1.447.341.25.047.243.96,0,1.415-.9,1.68-2.625.26-2.356-.034C379.585,210.414,379.049,210.235,379.293,210.008Zm-.639-1.987c-.646.774-2.5.054-2.264-.383.8-1.48.037-1.807.31-2.135.166-.2.4.31,1.442-.074C378.489,205.3,379.291,207.254,378.653,208.021Zm-1.39-7.24c-.869,1.23-3.172-.057-3.106-.43.161-.91-.178-1.391.018-1.73.158-.274.678.267,1.749-.446C376.4,197.856,377.907,199.87,377.264,200.781Zm-1.5-3.514c-.844,1.339-2.97.19-2.892-.25.232-1.306-.047-1.685.089-1.965.1-.2.816.045,1.624-.339A1.776,1.776,0,0,1,375.765,197.267Zm-1.366-3.234a2.342,2.342,0,0,1-3.15-.7c-.02-.166.1-.507.069-.747-.049-.433-.19-.881-.111-.972.143-.159.817.008,1.583-.027.43-.02,1.03-.248,1.193-.166A1.769,1.769,0,0,1,374.4,194.034Zm-2.359,2.915c-.777.972-2.824.267-3.135-.222-.175-.272-.05-.717-.029-1,.027-.364-.072-.68.084-.945.072-.124.537-.086.943-.223.426-.143.8-.458,1.027-.416C371.374,194.228,373.01,195.737,372.04,196.949Zm-1.524-3.611c-.859,1.445-3.056.364-3.111.059-.025-.138.3-.675.371-1.111.089-.524-.148-.71.074-.97.154-.183.416.195,1.581-.279C370.154,190.744,370.981,192.56,370.516,193.337Zm-1.529-2.967a1.561,1.561,0,0,1-2.3-.472c-.027-.277.886-1.811,1.218-1.791.228.013.237.621.53,1.1C368.749,189.717,369.229,190.149,368.987,190.37Zm-1.859,1.655c.037.507-.185,1.03-.4,1.009-.373-.037-.342-.814-.329-1.264.017-.52.017-.77.213-.77S367.088,191.493,367.128,192.025Zm1.836,13.182c-.107.163-.874-.482-1.124-.624s-.275-.352-.017-.482C368.286,203.868,369.071,205.047,368.964,205.207Zm-.065,1.448c.159.317-.128.349-.287.381s-.51.351-.717.191a2.574,2.574,0,0,1-.366-.557c-.144-.253-.269-.487-.159-.653C367.51,205.8,368.739,206.336,368.9,206.655Zm-.238.985c.651.034.925,1.626.413,2.022-.247.193-.327.117-.524.216-.228.116-.448.314-.574.294-.274-.04-.218-.284-.356-.52-.089-.154-.213-.213-.282-.435C367.26,208.973,368.007,207.61,368.66,207.64Zm.455,6.669a4.743,4.743,0,0,1-.232.477,5.323,5.323,0,0,1-.171.564c-.122.17-.4-.05-.619-.1-.562-.124-.618-.086-.717-.228-.507-.728-.376-2.1.18-2.3S369.3,213.712,369.115,214.309Zm0-1.635c-.144,0-.248-.2-.416-.317-.133-.1-.351-.05-.406-.154a1.88,1.88,0,0,1,.713-1.895c.527-.081,1.8.814,1.317,1.547-.143.218-.421.191-.678.42C369.5,212.4,369.382,212.675,369.111,212.675Zm.727,1.908c.253-.143,1.321.081,1.433.557.023.111-.087.408-.064.718s.183.628.064.764c-.091.1-.42.03-.717.062-.242.029-.393.076-.478.081-.191.017-.638-.7-.733-1A1.294,1.294,0,0,1,369.838,214.583Zm.253,2.962c.589-.606,2.15-.111,2.309.206a1.443,1.443,0,0,1,.175.866,3.891,3.891,0,0,1-.864,1.067c-.19.128-.349.1-.651-.106C369.69,218.639,369.818,217.827,370.091,217.545Zm1.725,4.665a1.552,1.552,0,0,0,.628.393c.656.225.646.206.737.4.037.079.077.326-.091.364a3.3,3.3,0,0,1-1.561-.411c-.428-.17-.9-.312-.951-.368-.117-.131.114-.279.3-.418A1.032,1.032,0,0,1,371.817,222.21Zm.572-.312c-.267-.173-.436-.327-.468-.468-.091-.388-.26-.634-.143-.894s.525-.923,1.1-.923c.378,0,.4.279.863.48.237.1.789.062.864.2a1.5,1.5,0,0,1-.032,1.108c-.079.106-.522.31-.755.534s-.305.409-.441.414A2.851,2.851,0,0,1,372.389,221.9Zm2.534.248c.258-.012.8.28,1.141.269s.586.159.509.576c-.044.233-.086.378-.324.48-.183.079-2.21.238-2.3-.129C373.817,222.822,374.663,222.16,374.923,222.146Zm.663-.636a1.071,1.071,0,0,1,.025-1.457c.195-.052.725.359,1.128.4.9.094.7-.193,1.188-.221.221-.012.519,0,.463.364s.211.54.049.827c-.126.222-.566.2-1.1.341A2.567,2.567,0,0,1,375.586,221.51Zm3.17.4c.195-.067,1.421.181,1.39.31-.065.279-.814.56-1.519.77-.671.2-1.3.337-1.339.141C377.2,222.668,378.45,222.014,378.756,221.913Zm.468-4.172c1.129-.079,1.661-1.005,1.818-1.005.208,0,.3.886.988,1.005.361.062-.685,1.277-1.677,1.48C379.08,219.483,378.853,217.766,379.224,217.741Zm2.371-2.165c1.608-.774,1.317-1.165,1.666-1.3.255-.1.369.623,1.259.988.329.136-.54,1.851-1.53,1.975C381.6,217.414,381.3,215.72,381.6,215.576Zm1.509-3.833c-1.126.277-1.831-1.51-1.588-1.68,1.077-.747.685-1.391,1.077-1.514.237-.072.473.438,1.386.456C384.4,209.014,384.436,211.414,383.1,211.743Zm-1.311-5.837c-1.131,1.1-3.2-.621-3-1.034.5-.992.1-1.656.44-1.851a2.612,2.612,0,0,0,1.356-.153C381.154,202.614,382.6,205.123,381.793,205.907ZM379.4,194.228c.275.074.6.876.767,1.131s.1.577-.087.54-.547-.71-.859-.985C379.043,194.757,379.133,194.158,379.4,194.228Zm.273,3.984c-1.089,1.165-2.98-.322-3.017-.591-.013-.109.087-.555.091-.893,0-.49-.131-.947-.018-1.034.25-.2.462.242,1.749-.322C378.762,195.249,380.441,197.39,379.674,198.212Zm-1.92-6.5c.364.312,1.406,1.614.651,2.707-.992,1.435-2.915-.148-2.915-.148-.267-.2.034-.908.057-1.324.025-.455-.03-.68.124-.844.18-.193.557-.141.9-.183C377.024,191.867,377.6,191.58,377.754,191.711Zm-.3-.952a1.017,1.017,0,0,1-.629.508c-1.786.633-2.636-.609-2.611-.839s2.539.087,2.484-.718c-.017-.25-.91-.515-.985-.816-.139-.555.438-.883.631-.967.237-.1.337.544.613,1.109C377.242,189.635,377.578,190.467,377.452,190.759Zm-2.38-3.247c-.176-1.077-.055-2.214.5-1.8,0,0,.861,1.131.611,1.687C376.181,187.4,375.265,188.705,375.072,187.512Zm3.539-3.949c-.23.18-.809.77-1.222,1.091s-.514.077-.6-.02c-.072-.081-.582-.656-.732-.863a1.344,1.344,0,0,1-.282-.733,2.177,2.177,0,0,1,1.089-2.141.677.677,0,0,1,.747.022c.092.074.579.6.579.6.015.022.341.47-.245.426-.342-.025-.282-.136-.547-.171-.2-.027-.443.025-.472.153-.03.143.049.166.378.26.294.084-.055.24-.055.24-.188.106-.154.045-.624.2-.384.126-.344.408.054.339.638-.114.728.055.153.493-.21.158-.158.557.206.3.6-.42.916-.886,1.386-1.168s.722-.042.94.227C379.531,183.02,378.8,183.419,378.611,183.564Zm-4.375-8.193c.2.156-.027.339-.2.211s-1.643-1.119-1.828-1.26-.029-.3.112-.24C372.323,174.082,374.038,175.215,374.237,175.371Zm-1.854-2.182a1.343,1.343,0,0,1,.453-.4c.128-.069.3-.163.354.156a.8.8,0,0,1-.055.409c-.032.072-.154.51-.455.411A.426.426,0,0,1,372.382,173.189Zm2.01.665a1.207,1.207,0,0,1-.411.586c-.255.185-.566-.133-.665-.274s.02-.4.07-.468a8.462,8.462,0,0,1,.668-.683.279.279,0,0,1,.4.107A1.263,1.263,0,0,1,374.393,173.854Zm.349.25a.428.428,0,0,1,.416-.094c.191.091.106.43.064.547a1.656,1.656,0,0,1-.233.487c-.168.2-.5-.013-.6-.1a.345.345,0,0,1-.013-.425A3.614,3.614,0,0,1,374.742,174.1Zm-.822,1.932c.173.208.227.371.122.532-.136.206-.28.28-.483.2-.089-.035-2.227-1.542-2.227-1.542-.121-.094-.1-.3.1-.415a.646.646,0,0,1,.594-.081A14.9,14.9,0,0,1,373.919,176.035Zm-2.866.218a4.676,4.676,0,0,1-.753.052c-.206-.005-.263.332.055.352s.79-.01.453.253a3.392,3.392,0,0,1-.693.381c-.272.18-.176.529.141.369.6-.3.737-.294.549.064a4.834,4.834,0,0,0-.3.582c-.059.171.195.294.27.2.156-.195,1.009-1.567,1.133-1.775.181-.309.606-.163.319.319-.384.644-1.024,1.512-1.077,1.589-.139.2.074.463.253.218.455-.616.644-.9.644-.463s0,.639.173.639.2-.4.186-.638.106-.827.339-.3c.151.339.3.413.413.319s-.032-.514-.094-.715c-.178-.572.022-.581.173-.487a3.469,3.469,0,0,1,.653.45c.733.827-1.138,3.158-3.455,1.577-2.009-1.371-1.161-4.007.057-3.85a4.368,4.368,0,0,1,.733.47S371.719,176.17,371.053,176.253Zm1.492,3.855a2.1,2.1,0,0,0,1.859-1.541s.1-.409.361-.2,1.817,1.594,1.817,1.594.451.28-.037.544a2.466,2.466,0,0,0-1.259,1.69c-.037.3-.112.79-.582.376s-2.309-2.009-2.309-2.009S372,180.2,372.545,180.108Zm7.991,2.568c-.3.206-.5.06-.717-.168s-1.267-1.433-1.282-1.478-.138-.168,0-.319.5-.079.686.119a13.873,13.873,0,0,1,1.128,1.2C380.384,182.1,380.734,182.54,380.536,182.676Zm.473-.643c-.049.044-.275-.149-.383-.287a16.643,16.643,0,0,1-1.1-1.3c-.116-.188-.1-.2-.044-.279s.282.171.319.2a14.415,14.415,0,0,1,1.128,1.327C381.038,181.9,381.07,181.978,381.01,182.033Zm-.337-3.185c.32.5-.411,1.373-.732.992C379.538,179.36,380.56,178.668,380.672,178.848Zm1.648,1.769a.538.538,0,0,1,.047.519,1.862,1.862,0,0,1-.448.52c-.413.228-.544-.275-.483-.445s.413-.381.519-.472S382.218,180.514,382.32,180.617Zm-.305-1.114c.077.092-.045.488-.121.641a2.655,2.655,0,0,1-.824.733.409.409,0,0,1-.458-.275c-.122-.29.488-.809.717-.962S381.882,179.343,382.015,179.5Zm-14.422-19.386a7.317,7.317,0,0,1,2.2-.973c.282-.091.517-.9.816-.98a2.474,2.474,0,0,1,.9.05c.488.057,2.19-.3,2.638-.309.7-.007,1.8.248,2.551.248s2.385-1.878,2.756-1.878.193.953.379.943c.2-.01.284-.425.628-.436.116,0,.284.5.185.75-.122.3-.574.519-.782.742-.111.119-.081.315.044.317.889.012,2.747-2.563,3.455-2.551.23.005.273.2.169.557a1.7,1.7,0,0,0-.04.71,5.6,5.6,0,0,0,.233.869c.111.426-.8,1.168-1.677,1.411a.345.345,0,0,0-.284.287c.02.121.117.139.31.1,1.927-.394,2.73-1.542,3.427-1.8.148-.055.334.081.289.374a8.426,8.426,0,0,1-.613,1.794c-.126.233-.3.346-.812.586a5.53,5.53,0,0,1-3.239.918c-.654-.049-.552.255-.109.4,1.292.426,3.2-.351,3.848-.616.9-.368.738.535.131.767-.723.275-.715.455-.193.68.309.133.173.665-.51.463-2.336-.691-3.306-.22-3.819,0s-.822.559-.72.691c.262.336,1.124-.52,2.505-.52,4.011,0,3.019,2.709,3.019,2.709a2.106,2.106,0,0,1-1.455,1.819c-2.146.925-3.353.7-3.747-.1-.138-.28-.263-.352-.455-.263s.03.5.03.5a2.222,2.222,0,0,0,1.249,1.072,4.266,4.266,0,0,0,2.071-.163c.368-.117.574-.1.707.176s.55,1.2.681,1.551-.013.453-.169.515c-.186.072-.6-.6-.9-.854s-.666-.081-.381.309a3.289,3.289,0,0,1,.7,1.683,7.81,7.81,0,0,1-.522,2.584c-.191.706-.111,1.18-.352,1.247-.505.141-.727-1.628-1.066-1.452-.258.136-.069.935.034,1.3a.786.786,0,0,1-.008.368c-.146.468-.426,1.458-.847,1.564a3.436,3.436,0,0,0-1.631,1.087c-.176.133-.515.646-.7.822a.8.8,0,0,1-.883,0c-.21-.193-2.865-2.472-3-2.643-.148-.193-.191-.25-.178-.456a5.017,5.017,0,0,1,.133-.837c.059-.176.324-.337.574-.69a4.092,4.092,0,0,0,.529-.911c.044-.178.029-.72.087-1.087s-.19-.309-.279-.279-.436.2-.47,0c-.042-.24.059-.339.117-.868s-.4-.279-.441-.263-.426.248-.6.366-.324.084-.4-.235c-.084-.376-.19-.305-.352-.235a2.729,2.729,0,0,0-1.109.665,5.04,5.04,0,0,0-.566,1.054,1.621,1.621,0,0,1-.364.644.949.949,0,0,1-1.165.121c-.352-.235-2.556-1.22-2.952-1.47s-.089-.5.013-.6,1.116-1.029,1.116-1.029c.324-.307.472-.176.368.324-.126.613.765.133,1.4-.148s.383-.057.618.309,1.616-1,1.616-1c.148-.133.319-.233.381-.133.163.265.321.094.472-.044a5.482,5.482,0,0,0,1.512-2.542c.1-.426.383-.117.383-.117a13.8,13.8,0,0,0,1.087.911c.352.235.661-.411.352-.587a6,6,0,0,1-1.279-1,4.172,4.172,0,0,1-.572-.97c-.176-.265-.475-.282-.4.22a3.472,3.472,0,0,1-.589,2.484c-.176.309-.411-.03-.5-.191s-.222-.074-.279.176a3.069,3.069,0,0,1-.676,1.175c-.529.572-.456.148-.529-.059s-.191-.2-.368-.074-.691.515-1.044.735-.347.1-.45-.163-.386-.218-.527-.183a5.663,5.663,0,0,1-1.594.081c-.646-.072-.28-.675-.28-.675.025-.074.163-.175.26-.326.134-.208.245-.473.373-.542a1.714,1.714,0,0,1,1.26.032c.435.2.805.539,1.22.539.153,0,1.752-1.022,1.752-2.151a8.343,8.343,0,0,0-.532-3.417c-.163-.258-.352-.258-.515-.149a3.755,3.755,0,0,1-1.73.519,1.041,1.041,0,0,1-.9-.641c-.124-.255-.282-.18-.379-.081s-.748.69-.665-.272c0,0,.045-.344.107-.774a2.313,2.313,0,0,0-.188-.894,7.09,7.09,0,0,1-.164-1.1A.583.583,0,0,1,367.593,160.116Zm1.227,5.894c-.3,0-.354-.863-.346-.972.007-.084.062-.3.188-.31.176-.015.515.26.515.369C369.177,165.6,368.977,166.01,368.819,166.01Zm.477,1.354c.015.156.111.362-.116.391s-.242.012-.284-.06a.529.529,0,0,1,.02-.331s.092-.322.2-.322S369.283,167.206,369.3,167.364Zm1.259,1.353c.232.161-.123.379-.473.2a3.229,3.229,0,0,0-1.208-.326c-.555-.04-.841.136-1.383.054s-.144-.478-.081-.542c.131-.131.5.013.772.013A5.611,5.611,0,0,1,370.555,168.717ZM370,166.268c-.26,0-.488-.545-.4-1.121.023-.151.361-.371.559-.371.089,0,.228.163.22.356S370.33,166.268,370,166.268Zm1.269.765c.3.107.371.2.393.42a1.351,1.351,0,0,1-.4,1.035c-.169.159-.378-.029-.607-.225a3.322,3.322,0,0,0-.693-.341.383.383,0,0,1-.233-.331c0-.06.012-.362.044-.7s.478-.139.478-.139C370.486,166.826,370.969,166.928,371.268,167.034Zm-5.429.1c-1.091-.841-1.45-2.143-1.161-2.356.223-.164.242,1.076,1.487,1.415,1.173.32,2.45-.117,2.542.357a1.149,1.149,0,0,1-.425.928c-.136.143-.448.111-.681.151A1.694,1.694,0,0,1,365.839,167.134Zm-.433,7.256a2.61,2.61,0,0,0,.292-.861c.045-.562.238-.451.562-.31,0,0,3.088,1.51,3.251,1.6s.21.327-.1.572a2.046,2.046,0,0,0-.7,2.16c.044.3-.044.562-.465.28a33.305,33.305,0,0,0-3.672-1.824c-.252-.1-.547-.284-.284-.443A3.472,3.472,0,0,0,365.406,174.391Zm-.842-4.956c.087-.321.455-.554.483-.034a.937.937,0,0,1-.052.453.254.254,0,0,1-.307.154c-.175-.029-.2-.183-.186-.315A1.087,1.087,0,0,1,364.564,169.435Zm-1.111-.087c.02-.119.122-.431.122-.431s.107-.357.282-.322a.349.349,0,0,1,.289.376c-.005.044-.054.366-.076.44-.044.138-.094.4-.394.321A.293.293,0,0,1,363.453,169.348Zm1.138,1.138c-.007.042.008.129-.123.112-.391-.054-1.326-.393-1.65-.446-.136-.023-.111-.156-.112-.19s.037-.047.148-.039C363.327,169.96,364.621,170.326,364.59,170.486Zm-1.952-1.5c.05-.309.215-.537.406-.473.086.029.151.131.039.646-.012.047-.1.287-.272.258-.26-.04-.2-.247-.2-.247A.444.444,0,0,1,362.639,168.99Zm.086,1.591s1.579.441,1.643.473c.346.173.29.881-.089.826l-1.554-.435C362.281,171.3,362.429,170.482,362.724,170.581Zm-1.074,3.964c.054-.21.22-.809.362-1.336.106-.4.206-.754.24-.854.072-.23.216-.455.389-.433s.367.292.3.68-.3,1.621-.336,1.838-.082.408.065.409c.183,0,.258-.292.292-.4.039-.129.128-.485.151-.562s.064-.139.139-.042.141.428.248.584c.139.2.356.1.314-.175a5.086,5.086,0,0,0-.129-.572c-.054-.238.109-.359.237-.238.43.411.581.04.367-.193-.04-.045-.381-.483-.4-.508-.06-.081-.206-.477.185-.368.074.022.886.326.886.326s.7.255-.171,1.745a2.473,2.473,0,0,1-2.422.834s-.555-.2-.624-.247S361.56,174.892,361.65,174.545Zm-.216.837a37.526,37.526,0,0,1,8.329,4.061c4.979,3.573,6.58,5.459,6.813,5.791.27.381.04.707-.292.332a36.831,36.831,0,0,0-6.776-5.711,37.742,37.742,0,0,0-8.278-4.034C360.857,175.666,361.014,175.334,361.434,175.382Zm-9.443,3.314a3.441,3.441,0,0,0,1.225,1.695c.2.156.213.423-.268.232a2.9,2.9,0,0,1-1.19-.826,1.087,1.087,0,0,1-.329-.836C351.561,178.15,351.776,178.281,351.991,178.7Zm-.717-2.354a.546.546,0,0,1,.485.55c-.023.352-.067,1.233-.461.792S350.882,176.312,351.274,176.342Zm-.4,2.636c0,.351-.138.569-.285.5a1.053,1.053,0,0,0-1.1.159c-.153.089-.285-.045-.594-.814a1.1,1.1,0,0,1,.109-1.19c.507-.307,1.212.045,1.586.2S350.875,178.626,350.875,178.979Zm-4.377-2.13c.287-.263,1.193.044,1.567.4s.282.792.216,1.277-.683.263-1.364.242-.639-.683-.683-.968C346.235,177.8,346.213,177.113,346.5,176.849Zm-.391-1.722c0-.4-.007-.713.232-.9.483-.374,1.163-.03,1.609.505.176.211.087.339-.007.606-.112.322-.044.715-.247.935-.154.169-.309-.154-1.029-.143C346.26,176.139,346.109,175.542,346.107,175.127Zm.965,4.252c.693-.549,1.792.3,2,.859a3.95,3.95,0,0,1,.119.98c.022.25-.02.522-.317.384-.45-.21-.827.18-1.092.091a2.182,2.182,0,0,1-.656-.423,1.5,1.5,0,0,1-.458-.505A1.112,1.112,0,0,1,347.072,179.38Zm3.3-2.245c-.087.176-.812-.131-1.077-.087s-.19.126-.461.044-.441-.572-.441-.99a1.217,1.217,0,0,1,.331-.836,1.447,1.447,0,0,1,1.584.461A2.391,2.391,0,0,1,350.371,177.134Zm-1.73-3.779.571.832s.25.4-.232.446a.562.562,0,0,1-.636-.547,3.818,3.818,0,0,0-.012-.6S348.384,173,348.641,173.355Zm-4.689,1.191c0-.055-.265-2.65-1.121-2.949-1.324-.458-5.221,1.232-6.855-1.121-.334-.48.109-.514.109-.514s4.669-.037,4.761-2.26c.116-2.792-3.423-4.961-3.934-5.276-.386-.238.015-.433.406-.423,3.731.111,5.271,2.745,6.248,1.913,1.747-1.49-.774-5.711-.312-6.048.366-.267,2.14.76,3.069,2.537.8,1.524.423,3.511,1.25,4.117.946.695,2.061-.128,2.757-.883.5-.544.668-1,.936-1.084.415-.131.846,2.6-.331,3.952-1.47,1.69-2.628,1.948-2.922,2.72a6.462,6.462,0,0,0,.067,2.89.459.459,0,0,1-.015.3,2.21,2.21,0,0,0-.31.913c0,.238-.2.331-.5.257a1.4,1.4,0,0,0-1.27.079c-.275.171-.352.614-.438.988-.05.22-.076.5-.22.46-.564-.173-1-.185-1.217-.294C344,174.76,343.952,174.552,343.952,174.547Zm.567,2.715c-.06-.309-.221-1.359-.221-1.359-.089-.309.154-.4.263-.374a1.307,1.307,0,0,1,1.255,1.277,3.381,3.381,0,0,1-.2.915c-.171.389-.406-.005-.649.03C344.645,177.8,344.578,177.572,344.52,177.262Zm.307,1.391c-.022-.55.539-.195.653-.107a6.887,6.887,0,0,0,.69.5c.2.111.022.572-.022.947s-.067.594-.287.616a1.132,1.132,0,0,1-.681-.307A7,7,0,0,1,344.827,178.653Zm1.895,4.734a11.551,11.551,0,0,1-.879-1.695c-.111-.263-.022-.639.329-.485,0,0,.782.53.988.69.156.121.1.26-.015.69-.069.257.121.673.128.8S347.139,184.025,346.721,183.387Zm3.343.571a5.225,5.225,0,0,1-1.937-.022,1.441,1.441,0,0,1-.463-.9.638.638,0,0,1,.287-.659c.374-.2.331-.331.836-.176a3.2,3.2,0,0,1,1.475.859C350.46,183.386,350.371,183.936,350.064,183.958Zm.44-1.5a4.516,4.516,0,0,1-.77-1.1.924.924,0,0,1,.176-.968,1.251,1.251,0,0,1,.559-.289c.094-.013.819-.18.663.508a2.369,2.369,0,0,0,.077,1.19.646.646,0,0,1-.2.681C350.791,182.659,350.5,182.461,350.5,182.461Zm1.348,1.3a.488.488,0,0,0-.8-.072c-.111.131-.336-.138-.1-.445s.519-.584.893-.3c.765.586,1.057,1.139,1.893,1.145.23,0,.792.4.065.441A1.854,1.854,0,0,1,351.852,183.76Zm.832,1.817c-.362-.312-.2-.643.346-.512a3.077,3.077,0,0,0,3.168-1.336c.289-.383.2-.577-.347-.512s-3,.458-3.759-1.72c-.181-.517.1-.616.393-.473a4.553,4.553,0,0,0,3.078.235c.527-.22.352-.4-.27-.725-4.462-2.334-1.98-5.39-.91-5.863.743-.329,1.185-.213.725.3-1.962,2.192,2.326,5.758,5.877,2.012.166-.176.279-.6.873-.334a41.235,41.235,0,0,1,6.651,3.219,45.848,45.848,0,0,1,5.905,4.536.584.584,0,0,1,.149.792,3.473,3.473,0,0,0,.3,3.6c.163.243.73,1-.265.69a6.168,6.168,0,0,1-1.739-.893c-.461-.3-.742-.133-.693.247a3.956,3.956,0,0,0,.359,1.267c.126.262.314,1.337-.879.722a5.02,5.02,0,0,1-3.011-3.59s-.094-.755-.792-.1c-1.7,1.6-1.9,2.056-2.071,4.365-.017.232.124,1.395-.619.653s-2.391-2.014-1.6-5.363c.1-.433.247-1.056-.727-.43s-3.3,1.666-4.258,4.028c-.332.822-.51.842-.775.148a4.462,4.462,0,0,1,.859-4.637c.195-.223.411-.362.23-.545s-.411.091-.955.472A4.018,4.018,0,0,1,352.684,185.577Zm.144,4.654c.156-.166.854-.666,1.134-.871.141-.1.834-.31,1.032-.064s-.21.7-.285,1,.049.559-.126.807c-.24.344-1.529.292-1.851.013C352.336,190.773,352.672,190.4,352.828,190.231Zm-1.752,2.13a1.661,1.661,0,0,1,.8-.849c.3-.2.564.148.9.309.25.117.54.117.624.18.2.148-.3,1.45-.559,1.525a2.3,2.3,0,0,1-1.787-.049C350.813,193.312,350.95,192.626,351.076,192.36Zm-2.391.537c.2-.149,1.361-.77,1.46-.836s.581-.309.483-.03a4.469,4.469,0,0,0-.262.861c-.032.164-.087.53-.362.584a2.6,2.6,0,0,1-1.359-.032C348.287,193.253,348.487,193.045,348.685,192.9Zm.826,4.387a3.04,3.04,0,0,0-1.9,1.156c-.883,1.317.717,3.11.208,3.469-.284.2-1.473-.876-3.237-.4,0,0-1.411.208-2.469,2.8-.676,1.648-1.059-.089-1.059-.089-1.792-3.793-5.467-1.207-6.583-.3-.839.685-1.225.45-.7-.411,2.321-3.85-1.47-3.873-1.47-3.873s-2.3-.062-.718-.631,8.537-1.722,15.627-5.31a.518.518,0,0,1,.614,0,5.457,5.457,0,0,0,.844.42c.077.055.279.159.2.618s-.2.856-.072,1.106c.247.477.762.532,1.24.681C350.418,196.64,349.858,197.178,349.51,197.284Zm-.128-1.8a1.53,1.53,0,0,1,1.136-1.63c.18-.047.327.133.639.247s.643.035.722.181c.114.211-.1.361-.23.738-.1.28.082.557-.492.819C350.395,196.187,349.422,195.826,349.383,195.482Zm2.48,1.668c-.529.045-.948.04-.968-.213-.013-.2.577-.619.837-.639.411-.034,1.247.294,1.262.492C353.026,197.162,352.254,197.116,351.863,197.15Zm.361-1.505c-.163-.329-.129-1.178,1.2-1.693.3-.114.148.2.576.3s.524-.1.688.1-.1.46-.213.754c-.1.275.034.574-.361.723C352.909,196.272,352.388,195.974,352.224,195.645Zm1.725,1.22c0-.131.425-.537.67-.5.228.035.591.1.623.428S353.949,197,353.949,196.865Zm3.474-1.535c-.1.319-.19.69-.378.821a2.061,2.061,0,0,1-1.557.032.85.85,0,0,1-.46-.623,1.605,1.605,0,0,1,1.181-1.379c.228-.032.458.166.671.232s.607-.017.707.211C357.636,194.738,357.524,195.01,357.423,195.329Zm.591.821a1.71,1.71,0,0,1,1.082-1.886c.18.01.433.255.77.359.277.087.644.017.772.148.277.3-.067.706-.411.968S358.158,196.618,358.014,196.15Zm3.329,2.969c-.247.049-1.126-1.734-1.225-1.985-.138-.344-.178-.384.139-.539.7-.337,1.183.654,1.4,1.146S361.588,199.068,361.343,199.118Zm.718.409a7.606,7.606,0,0,0,.3-.926c.037-.527-.17-1.02-.017-1.188s.9.146,1.705-.493c.361-.287,2.42,1.66,1.673,2.838C365.039,200.835,362.078,200.33,362.061,199.528Zm1.309,2.12c-.245-.268-.539-.631-.315-.722.263-.107.841.208,1.633.128a3.023,3.023,0,0,0,1.28-.639c.279-.133,1.186.673,1.541,1.213.755,1.148-.242,2.423-.738,2.264A11.742,11.742,0,0,1,363.37,201.647Zm3.346,5.308c.653-.19.4,1.673,0,2.15-.149.18-.425.168-.589.24-.277.117-.421.232-.51.143C365.4,209.266,366.435,207.038,366.717,206.955Zm-.122,2.9c1.012.049,1.181,1.96,1,2.22-.081.114-.446.206-.626.4-.232.242-.156.383-.408.456-.188.054-.393-.287-.554-.425a5.523,5.523,0,0,1-.718-.7C364.938,211.181,366.074,209.827,366.594,209.855Zm-1.1,7.016c-.381-.388-.876-3.788-.443-3.966.732-.3,1.717,1.97,1.653,2.385a9.031,9.031,0,0,1-.354.891c-.143.376-.129.849-.258.921C365.876,217.222,365.757,217.144,365.49,216.872Zm1.858,3.026c-.263-.112-.466-.473-.663-.728-.391-.5-.646-1-.507-1.17.094-.117,1.285,1.21,1.337,1.368S367.519,219.971,367.348,219.9Zm-.1-3.989c.844-.3,2.109.851,2.227,1.24a1.677,1.677,0,0,1-.05.775c-.052.3.035.678-.064.782-.18.188-.6.148-.839.154s-.525,0-.624-.1C366.577,217.392,366.859,216.046,367.244,215.908Zm.765,4.652a1,1,0,0,1,.248-.806c.472-.525,1.559-.091,1.559-.091.3.114,1.161.307,1.111.561-.1.48.435,1.141.123,1.245-.381.126-.388.122-.636.222-.191.074-.414.356-.559.376A3.447,3.447,0,0,1,368.009,220.56Zm17.26,6.563a.3.3,0,0,0,.408.01c.1-.094.01-.319-.149-.468a14.767,14.767,0,0,1-1.257-1.007c-.24-.29-.023-.409.04-.45a11.355,11.355,0,0,1,3.672-.738A9.853,9.853,0,0,1,393.918,227c.149.168.451.272.549.159.136-.158-.1-.458-.22-.579s-1.087-.858-1.227-.987-.133-.324.039-.389a10.618,10.618,0,0,1,4.152-.639c3.69.091,5.093,2.5,5.1,2.875.01.837-2.383,2.668-5.266,2.742a9.022,9.022,0,0,1-6.4-2.494c-.072-.055-.4-.193-.559-.059-.169.146-.049.376.04.468s1.138.868,1.237.946a.265.265,0,0,1-.02.42c-.749.549-2.779.659-3.5.688-3.214.131-6.176-2.413-6.176-2.413s-.29-.22-.48,0a.269.269,0,0,0,.05.4c.03.039,1.277.926,1.277.926.22.159-.05.369-.05.369-.668.579-3.551.708-3.551.708a9.558,9.558,0,0,1-6.016-2.363s-.357-.22-.5-.05c-.176.213.072.43.072.43l.836.619c.112.072.408.213.386.433-.065.663-3.378.883-3.378.883a8.3,8.3,0,0,1-4.62-1.257,10.891,10.891,0,0,1-1.646-1.168s-.275-.26-.508-.039c-.1.1-.024.282.1.4.05.047.96.678,1.051.769s.267.268.117.478a8.439,8.439,0,0,1-3,.769,10.847,10.847,0,0,1-6.691-2.415c-.107-.076-.425-.247-.513-.139a.232.232,0,0,0,.029.369c.124.116,1.029.78,1.121.859s.305.213.305.408-.228.282-.359.349a10.141,10.141,0,0,1-3.6.5,9.129,9.129,0,0,1-4.023-1.1,11.905,11.905,0,0,1-1.96-1.376c-.057-.062-.393-.173-.47-.03a.352.352,0,0,0,.039.378c.059.06,1.173.864,1.376,1,.181.119.188.158.079.31-.242.339-3.066.9-4.288.821-2.294-.148-4.942-1.571-4.989-2.64-.06-1.426,3.007-2.99,5.566-2.935a10.046,10.046,0,0,1,6.075,2.348c.121.119.4.337.559.188s.05-.4-.119-.539a14.532,14.532,0,0,1-1.158-.908c-.149-.19-.186-.289.06-.389a8.581,8.581,0,0,1,3.95-.659,9.686,9.686,0,0,1,5.637,2.475s.379.319.559.129-.121-.508-.121-.508-1.076-.817-1.267-1.007-.049-.381.149-.45a10.487,10.487,0,0,1,3.494-.618c3.091-.131,5.916,2.314,6.065,2.474s.48.218.579.1c.139-.169-.2-.46-.349-.6s-.839-.649-1.019-.787-.06-.321.119-.47a9.491,9.491,0,0,1,3.5-.767c3.244.022,5.882,2.415,6.107,2.583a.3.3,0,0,0,.438,0c.119-.141-.02-.4-.17-.519s-1.108-.779-1.227-.9-.24-.139.159-.409a8.094,8.094,0,0,1,3.581-.668A10.268,10.268,0,0,1,385.269,227.124Zm-3-6.454c-.2.579-1.64.918-2.229.854-1.047-.112-1.032-1.52-.822-1.673.188-.139.814.126,1.212.023.693-.176.9-.488,1.284-.433.2.03.252.468.3.574C382.114,220.268,382.364,220.408,382.273,220.669Zm2.479-2.539a2.51,2.51,0,0,1-.764,1.128c-.421.463-.665.812-.9.809-.366,0-.529-.493-.542-.973-.017-.594.174-1.143.367-1.183,1.2-.252,1.044-.545,1.332-.759C384.5,216.966,384.888,217.647,384.752,218.13Zm.524-1.047c-.349-.037-.213-1.336-.077-1.567s.91-.948,1.064-.737C386.558,215.187,385.623,217.123,385.275,217.083Zm-.262-2.477c-1.1.134-1.712-1.975-1.43-2.208,1.138-.943.878-1.317,1.121-1.332.371-.025.472.648,1.935.844C387.007,211.958,386.475,214.432,385.014,214.606Zm2-3.445c-1.277.784-2.554-1.9-2.153-2.3,1.252-1.252.685-1.628,1.15-1.66a1.825,1.825,0,0,1,1.076.621C387.3,208.113,387.4,210.916,387.009,211.161ZM385.7,203.9c.356-.228.985,1.989,1.059,2.244s.128.512-.092.6c-.409.171-1.277-1.705-1.368-1.88A1.477,1.477,0,0,1,385.7,203.9Zm-.985,4.36c-1.2.839-3.019-1.426-2.62-1.826.785-.785.393-1.423.631-1.586.292-.2.6.512,1.588.128C385.064,204.68,385.618,207.623,384.71,208.258Zm-.023-4.117c-1.2,1.054-3.407-1.447-3.276-1.769.478-1.165,0-1.656.191-1.851.23-.23.952.413,1.928-.134C383.836,200.214,385.942,203.044,384.686,204.141Zm-1.029-6.726a.923.923,0,0,1-.952-.381c-.154-.373.317-1.027.317-1.027a.69.69,0,0,1,.242-.121,2.688,2.688,0,0,1,1.138.032.781.781,0,0,1,.252.755C384.621,196.969,383.837,197.355,383.658,197.415Zm.931-1.957c-.138-.081-.2,0-.371-.133s.029-.525.029-.545a3.2,3.2,0,0,1,.329-.329,3.476,3.476,0,0,1,.735-.218,1.17,1.17,0,0,1,.678.1.417.417,0,0,1,.2.388,1.573,1.573,0,0,1-.408.6,2.263,2.263,0,0,1-.8.379C384.837,195.727,384.728,195.537,384.589,195.458Zm1.138,1.084a.321.321,0,0,1-.431-.05c-.138-.131.059-.386.059-.386a3.913,3.913,0,0,1,.555-.175c.237-.054.32,0,.349.159S385.864,196.448,385.727,196.542Zm.143-2.868c-.186-.141,0-.524.032-.557a.8.8,0,0,1,.208-.307,2.925,2.925,0,0,1,1.106-.274c.262.022.322.233.4.5s-.4.859-.552.958-.349.164-.48.023S386.056,193.817,385.87,193.674Zm2.648,1.161a4.89,4.89,0,0,1-1.249.743c-.3.091-.513-.23-.535-.5s.317-.505.317-.505a2.166,2.166,0,0,1,1.455-.25C388.845,194.391,388.6,194.8,388.518,194.836Zm-.569-3.076s.832-.512.97-.347c.057.067.013.316-.03.379a2.373,2.373,0,0,1-.579.428c-.218.109-.29.087-.466-.133S387.949,191.76,387.949,191.76Zm1.334,2.276c-.24.143-.93-.218-1.039-.415s.215-.775.349-.864c.23-.154,1.366-.248,1.4.054A1.038,1.038,0,0,1,389.283,194.035Zm12.6-7.726c-.416.4-.895,2.863-2.012,4.145-1.294,1.487-2.942,1.576-2.834,2.007.084.331.888.5,1.834,1.165,1.16.812,2.417,1.947,2.178,2.244s-1.4-.906-1.769-.5c-.279.314.957,1.3,1.468,2.935.347,1.114-.044,3.992-.475,4.122-.168.049-.643-1.713-.97-1.6-.408.136-.676,2.613-1.317,2.422-.367-.1.3-1.682-1.542-2.814-1.759-1.081-6.157-1.091-6.07-5.719a14.326,14.326,0,0,0,1.551-1.529.389.389,0,0,0-.547-.394c-.415.176-.7.547-.785.067a1.156,1.156,0,0,0-.393-.634c-.233-.176-.514-.2-.582-.344a2.664,2.664,0,0,1,.18-1.084c.087-.284-.121-.646-.581-.515s-.567.175-.567-.305a4.409,4.409,0,0,0-.785-2.336c-.656-1.025-2.818-2.074-2.009-4.454a2.323,2.323,0,0,1,.2-.371c.5-.284.319,1.66,1.492,1.729.56.034.648-.6.893-.624.195-.015.616.329,1.247.713,2.044,1.247,1.576,2.148,2.148,2.01.248-.06.193-1.713.745-2.912.717-1.556,1.49-2.752,1.75-2.752.683,0,.292,1.938.884,1.938.451,0,.463-1.2,1.178-1.977,1.173-1.269,2.428-1.426,3.288-2.031.678-.478.7.1.273,1.131a5.094,5.094,0,0,0-.762,2.168c.079.782.477,2.68.2,3.378-.567,1.406.012.78.156.7a3.164,3.164,0,0,1,2.225-.644C402.5,185.772,402.294,185.916,401.884,186.309Z" transform="translate(-328.693 -154.612)" fill="#fff"/>
        <path id="Path_418" data-name="Path 418" d="M369.191,177.136a4.833,4.833,0,0,0,1.188-2.69c.01-.46-.193-2.838.312-3.774,0,0,.268-.282.134-.431s-.356.238-.386.253-.624.089-.609,4.13a5.415,5.415,0,0,1-.787,2.2s-.327.371-.223.475S369.191,177.136,369.191,177.136Z" transform="translate(-301.494 -144.036)" fill="#fff"/>
        <path id="Path_419" data-name="Path 419" d="M365.545,173.755s-.193-.238-.356-.134-.06.193.059.356a3.582,3.582,0,0,1,.52,1.532c.008.18.1.386.253.341s.282-.149.252-.312a3.277,3.277,0,0,0-.164-.967A2.68,2.68,0,0,0,365.545,173.755Z" transform="translate(-304.001 -141.739)" fill="#fff"/>
        <path id="Path_420" data-name="Path 420" d="M372.826,174a12.779,12.779,0,0,1-3.507,3.581c-.2.112-.52.327-.46.4s.208.1.549-.013a7.915,7.915,0,0,0,3.672-3.806s.148-.3.059-.386S372.915,173.912,372.826,174Z" transform="translate(-301.459 -141.629)" fill="#fff"/>
        <path id="Path_421" data-name="Path 421" d="M368.432,178.77c-.312-.4-.621-.161-.423.074a6.326,6.326,0,0,0,1.455,1.319c1.091.715,1.554.361,2.747,1.591.317.327.3-.111.3-.111a5.333,5.333,0,0,0-1.181-1.069A8.886,8.886,0,0,1,368.432,178.77Z" transform="translate(-302.073 -138.376)" fill="#fff"/>
        <path id="Path_422" data-name="Path 422" d="M369.088,180.934a2.26,2.26,0,0,1-1.108-1.218s-.174-.262-.285-.2-.062.361-.062.361a2.291,2.291,0,0,0,1.2,1.616,5.921,5.921,0,0,1,2.239,1.393s.223.235.285.223a.284.284,0,0,0,.138-.285C371.461,182.724,371.188,181.879,369.088,180.934Z" transform="translate(-302.293 -137.73)" fill="#fff"/>
      </g>
    </g>
  </g>
</svg>
