<svg id="Group_76" data-name="Group 76" xmlns="http://www.w3.org/2000/svg" width="16.789" height="16.789" viewBox="0 0 16.789 16.789">
  <g id="Group" transform="translate(0 0)">
    <path id="Path_55" data-name="Path 55" d="M15.113,12.193a7.212,7.212,0,0,0,.536-2.239H13.42a13.293,13.293,0,0,1-.275,2.239Zm.536-3.358A7.212,7.212,0,0,0,15.113,6.6H13.145a13.293,13.293,0,0,1,.275,2.239ZM14.526,5.477H12.851A8.872,8.872,0,0,0,11.534,2.83,7.3,7.3,0,0,1,14.526,5.477ZM5.255,2.83A7.3,7.3,0,0,0,2.263,5.477H3.939A8.872,8.872,0,0,1,5.255,2.83ZM1.677,6.6a7.212,7.212,0,0,0-.536,2.239H3.369A13.293,13.293,0,0,1,3.644,6.6ZM1.141,9.954a7.212,7.212,0,0,0,.536,2.239H3.644a13.293,13.293,0,0,1-.275-2.239Zm1.123,3.358a7.3,7.3,0,0,0,2.992,2.647,8.872,8.872,0,0,1-1.316-2.647ZM0,9.395v-.56H.018A8.4,8.4,0,0,1,7.835,1.018V1H8.954v.018a8.4,8.4,0,0,1,7.817,7.817h.018V9.954h-.018a8.4,8.4,0,0,1-7.817,7.817v.018H7.835v-.018A8.4,8.4,0,0,1,.018,9.954H0Zm11.534,6.565a7.3,7.3,0,0,0,2.992-2.647H12.851A8.872,8.872,0,0,1,11.534,15.959ZM11.7,5.477C11.1,3.734,10.106,2.5,8.954,2.193V5.477ZM7.835,2.193C6.683,2.5,5.694,3.734,5.093,5.477H7.835V2.193Zm0,11.119V16.6c-1.152-.306-2.141-1.541-2.742-3.284ZM8.954,16.6V13.312H11.7C11.1,15.055,10.106,16.291,8.954,16.6Zm3.058-4.4H8.954V9.954H12.3A12.614,12.614,0,0,1,12.012,12.193ZM7.835,9.954v2.239H4.777a12.614,12.614,0,0,1-.289-2.239ZM12.3,8.835H8.954V6.6h3.058A12.614,12.614,0,0,1,12.3,8.835ZM7.835,6.6V8.835H4.488A12.614,12.614,0,0,1,4.777,6.6Z" transform="translate(0 -1)" fill="#fff" fill-rule="evenodd"/>
  </g>
</svg>
